<?xml version="1.0" encoding="UTF-8"?><svg id="Layer_2" xmlns="http://www.w3.org/2000/svg" viewBox="0 0 201.71 90.31"><defs><style>.cls-1{fill:#01384f;}.cls-2{fill:#038883;}.cls-3{fill:#037d78;}.cls-4{fill:#12b9a6;}.cls-5{fill:#2a2a2a;}.cls-6{fill:#5a626b;}.cls-7{fill:#50bf9e;}</style></defs><g id="Layer_2-2"><rect class="cls-6" width="201.71" height="90.31" rx="10.25" ry="10.25"/><g id="KQNec3.tif"><g><path class="cls-1" d="m63.22,69.53H26.72c-.04-.05-.1-.04-.15-.05-.73-.21-1.25-.66-1.54-1.37-.12-.3-.15-.61-.15-.93,0-1.96,0-3.92,0-5.88,0-.9,0-1.81,0-2.71,4.08,0,8.17,0,12.25,0,.19,0,.38-.02.57-.05.62-.12,1.11-.46,1.46-.98.26-.38.38-.82.38-1.28,0-3.62,0-7.23,0-10.85,0-.53,0-1.06,0-1.59,0-.12,0-.24,0-.36,0-3.08,0-6.16,0-9.24,0-.2-.01-.39-.04-.59-.11-.87-.89-1.64-1.68-1.8-.07-.01-.14-.02-.18-.09.28,0,.57-.01.85,0,.8.02,1.44.36,1.9,1.02.05.07.1.14.15.21,0,.05,0,.1.03.14.16.38.21.77.21,1.18,0,3.48,0,6.97,0,10.45,0,.07,0,.14,0,.21,0,.18.02.19.19.19.33,0,.67,0,1,0,1.22,0,2.44,0,3.66,0h0c0,3.94,0,7.88,0,11.82,0,.38-.02.36.36.36,6.37,0,12.73,0,19.1,0v10.47s-.04.04-.05.07c-.24.84-.79,1.36-1.63,1.59-.06.02-.12.03-.18.05Z"/><path class="cls-4" d="m65.07,32.98v12.18c-6.49,0-12.97,0-19.46,0,0,0,0,0,0,0,0-3.95,0-7.9,0-11.84,0-.11,0-.22,0-.33h.01c.13,0,.25,0,.38,0,6.36,0,12.72,0,19.08,0Z"/><path class="cls-2" d="m45.61,45.16c6.49,0,12.97,0,19.46,0v12.18c-6.37,0-12.73,0-19.1,0-.39,0-.36.02-.36-.36,0-3.94,0-7.88,0-11.82Z"/><path class="cls-7" d="m65.07,32.98c-6.36,0-12.72,0-19.08,0-.13,0-.25,0-.38,0,0-.09,0-.17,0-.26,0-3.97,0-7.94,0-11.92.08,0,.16-.01.24-.01,5.64,0,11.28,0,16.91,0,.58,0,1.1.15,1.54.52.38.32.65.71.73,1.22,0,.04.03.09.04.13v10.33Z"/><path class="cls-2" d="m14.35,58.48c-.81-.18-1.48-.91-1.62-1.75-.03-.21-.05-.42-.05-.64,0-7.29,0-14.57,0-21.86,0-.31.02-.62.12-.92.29-.91,1.11-1.53,2.08-1.56.1,0,.21,0,.31,0,3.13,0,6.26,0,9.39,0,.1,0,.19,0,.29,0,.1,0,.21,0,.31,0,4.07,0,8.13,0,12.2,0,.08,0,.16,0,.24,0,.04.07.11.08.18.09.79.16,1.57.93,1.68,1.8.03.2.04.39.04.59,0,3.08,0,6.16,0,9.24,0,.12,0,.24,0,.36-.02,0-.05,0-.07.02-.36.29-.77.49-1.17.72-.57.33-1.14.66-1.7.99-.53.31-1.07.62-1.6.93-.59.34-1.18.68-1.77,1.02-.45.26-.89.51-1.34.77-.36.21-.71.41-1.06.62-.14.09-.14.1-.06.24.08.13.12.27.1.43-.04-.07-.09-.13-.13-.2-.61-.99-1.22-1.98-1.83-2.96-.24-.39-.48-.78-.73-1.17-.06-.1-.08-.18,0-.28.03-.03.04-.07.06-.1,1.38-2.24,2.75-4.49,4.13-6.73.04-.07.12-.13.09-.24-.05,0-.09,0-.12,0-.89,0-1.78,0-2.66,0q-.35,0-.52.3s0,.03-.02.04c-.18.21-.26.48-.41.71-.19.31-.34.65-.51.97-.62,1.18-1.32,2.31-1.87,3.53,0,.02-.04.02-.06.04-.11-.25-.22-.5-.34-.74-.79-1.56-1.58-3.12-2.37-4.69-.06-.12-.13-.17-.27-.17-1.03,0-2.06,0-3.09,0-.03,0-.06,0-.1,0-.1,0-.11.05-.06.12.28.4.52.83.77,1.25,1.15,1.9,2.27,3.81,3.41,5.72.07.12.08.2,0,.32-.3.44-.6.87-.89,1.32-.31.49-.63.98-.95,1.47-.27.41-.52.83-.78,1.25-.6.96-1.23,1.91-1.84,2.86-.04.06-.1.12-.11.19.05.04.09.03.13.03,1.02,0,2.05,0,3.07,0,.13,0,.2-.05.26-.16.41-.76.83-1.52,1.25-2.28.47-.86.94-1.72,1.42-2.58.11-.2.23-.4.31-.61.02-.04.01-.1.09-.1.28.6.61,1.18.92,1.76.02.04.04.07.05.11.14.39.4.72.55,1.1,0,0,0,.01.01.02.19.24.32.53.45.81-.22-.08-.38.04-.55.14-.56.32-1.12.65-1.68.97-.57.33-1.15.67-1.72,1-.66.38-1.32.76-1.97,1.14-.58.33-1.15.66-1.73,1-.54.31-1.08.63-1.62.94-.58.34-1.17.67-1.75,1-.56.32-1.12.65-1.68.97-.33.19-.66.38-.99.57-.1.06-.18.13-.12.26Z"/><path class="cls-4" d="m37.62,31.75c-.08,0-.16,0-.24,0-4.07,0-8.13,0-12.2,0-.1,0-.21,0-.31,0,0-.5,0-1,0-1.5,0-2.35,0-4.71,0-7.06,0-.29.02-.58.12-.87.3-.89,1.12-1.5,2.06-1.53.1,0,.19,0,.29,0,5.99,0,11.97,0,17.96,0,.1,0,.21,0,.31.01,0,3.97,0,7.94,0,11.92,0,.09,0,.17,0,.26,0,0-.01.01-.01.01-1.22,0-2.44,0-3.66,0-.48,0-.95,0-1.43,0-.05-.07-.1-.14-.15-.21-.46-.67-1.09-1-1.9-1.02-.28,0-.57,0-.85,0Z"/><path class="cls-3" d="m30.84,49.57c.02-.16-.02-.29-.1-.43-.08-.14-.08-.16.06-.24.35-.21.71-.42,1.06-.62.44-.26.89-.52,1.34-.77.59-.34,1.18-.68,1.77-1.02.53-.31,1.07-.62,1.6-.93.57-.33,1.14-.66,1.7-.99.4-.23.81-.43,1.17-.72.02-.01.04-.02.07-.02,0,.53,0,1.06,0,1.59,0,3.62,0,7.23,0,10.85,0,.46-.12.9-.38,1.28-.35.52-.83.86-1.46.98-.19.04-.37.05-.57.05-4.08,0-8.17,0-12.25,0-.1,0-.19,0-.29,0-3.16,0-6.32,0-9.49,0-.25,0-.51,0-.75-.09-.06-.13.01-.2.12-.26.33-.19.66-.38.99-.57.56-.32,1.12-.65,1.68-.97.58-.34,1.17-.67,1.75-1,.54-.31,1.08-.63,1.62-.94.57-.33,1.15-.66,1.73-1,.66-.38,1.32-.76,1.97-1.14.58-.33,1.15-.66,1.72-1,.56-.32,1.12-.65,1.68-.97.17-.1.33-.22.55-.14.04.07.09.13.12.2.28.52.56,1.05.84,1.57.06.12.13.17.27.17,1.01,0,2.01,0,3.02,0,.05,0,.11.03.15-.05-.42-.69-.85-1.38-1.27-2.07-.15-.24-.29-.49-.44-.73Z"/><path class="cls-2" d="m41.95,32.98c1.22,0,2.44,0,3.66,0,0,.11,0,.22,0,.33,0,3.95,0,7.9,0,11.84-1.22,0-2.44,0-3.66,0,0-4.06,0-8.12,0-12.18Z"/><path class="cls-3" d="m41.95,32.98c0,4.06,0,8.12,0,12.18-.33,0-.67,0-1,0-.17,0-.18-.02-.19-.19,0-.07,0-.14,0-.21,0-3.48,0-6.97,0-10.45,0-.41-.05-.8-.21-1.18-.02-.04-.02-.09-.03-.14.48,0,.95,0,1.43,0Z"/></g></g><g><path class="cls-5" d="m88.4,32.96h1.67l3.38,9h-1.4l-.76-2.07h-4.12l-.76,2.07h-1.4l3.38-9Zm2.52,5.92l-1.65-4.52h-.08l-1.65,4.52h3.37Z"/><path class="cls-5" d="m97.31,41c1.06,0,1.79-.66,1.79-1.85v-3.87h1.3v6.69h-1.3v-1.34h-.04c-.12.5-.76,1.47-2.25,1.47-1.31,0-2.37-.76-2.37-2.65v-4.17h1.3v3.87c0,1.2.51,1.85,1.57,1.85Z"/><path class="cls-5" d="m102.47,40.26v-3.96h-1.09v-1.03h1.09v-1.69h1.3v1.69h1.32v1.03h-1.32v3.74c0,.66.22.95.94.95.15,0,.27,0,.48-.03v.98c-.24.06-.53.1-.84.1-1.12,0-1.88-.48-1.88-1.79Z"/><path class="cls-5" d="m105.92,38.62c0-2.39,1.6-3.47,3.25-3.47s3.27,1.08,3.27,3.47-1.59,3.47-3.27,3.47-3.25-1.08-3.25-3.47Zm3.25,2.38c1.08,0,2.03-.73,2.03-2.38s-.95-2.38-2.03-2.38-2.02.73-2.02,2.38.94,2.38,2.02,2.38Z"/><path class="cls-5" d="m113.24,38.63c0-2.42,1.58-3.49,3.27-3.49,1.2,0,2.68.51,2.92,2.51h-1.18c-.18-1.03-.91-1.4-1.75-1.4-1.22,0-2.03.88-2.03,2.38s.81,2.35,2.03,2.35c.85,0,1.57-.39,1.75-1.43h1.18c-.22,2.02-1.72,2.53-2.92,2.53-1.69,0-3.27-1.04-3.27-3.46Z"/><path class="cls-5" d="m120.21,38.62c0-2.39,1.6-3.47,3.25-3.47s3.27,1.08,3.27,3.47-1.59,3.47-3.27,3.47-3.25-1.08-3.25-3.47Zm3.25,2.38c1.08,0,2.03-.73,2.03-2.38s-.95-2.38-2.03-2.38-2.02.73-2.02,2.38.94,2.38,2.02,2.38Z"/><path class="cls-5" d="m127.84,35.27h1.3v1.54h.04c.19-.78.82-1.62,2.05-1.62.17,0,.35.01.5.06v1.09c-.17-.03-.32-.04-.49-.04-1.25,0-2.1.81-2.1,2.3v3.34h-1.3v-6.69Z"/><path class="cls-5" d="m132.72,35.27h1.3v1.54h.04c.19-.78.82-1.62,2.05-1.62.17,0,.35.01.5.06v1.09c-.17-.03-.32-.04-.49-.04-1.25,0-2.1.81-2.1,2.3v3.34h-1.3v-6.69Z"/><path class="cls-5" d="m137.27,38.63c0-2.46,1.47-3.49,3.19-3.49s3.05,1.04,3.05,3.38c0,.23-.01.36-.04.5h-4.95c.1,1.4.81,2.04,2.01,2.04.82,0,1.45-.3,1.74-1.08h1.16c-.4,1.49-1.54,2.1-2.91,2.1-1.8,0-3.24-1.05-3.24-3.46Zm5-.58c-.03-1.17-.68-1.89-1.83-1.89-1.07,0-1.8.62-1.92,1.89h3.74Z"/><path class="cls-5" d="m144.62,32.96h1.3v9h-1.3v-9Z"/><path class="cls-5" d="m147.04,40.21c0-1.29.94-1.81,2.14-1.96l1.66-.19c.62-.08.82-.19.82-.4v-.18c0-1.07-.55-1.35-1.49-1.35s-1.5.28-1.5,1.13v.15h-1.25v-.27c0-1.34.94-2.01,2.78-2.01s2.77.71,2.77,2.33v4.49h-1.22v-1.08h-.05c-.13.26-.76,1.21-2.41,1.21-1.25,0-2.24-.55-2.24-1.88Zm2.56.86c1.41,0,2.06-.87,2.06-1.59v-.73c-.09.14-.26.23-.91.31l-1.26.17c-.84.1-1.14.4-1.14.93,0,.63.45.93,1.26.93Z"/><path class="cls-5" d="m155.03,40.26v-3.96h-1.09v-1.03h1.09v-1.69h1.3v1.69h1.32v1.03h-1.32v3.74c0,.66.22.95.94.95.15,0,.27,0,.48-.03v.98c-.24.06-.53.1-.84.1-1.12,0-1.88-.48-1.88-1.79Z"/><path class="cls-5" d="m159.44,32.57c.41,0,.77.35.77.77s-.36.77-.77.77-.77-.33-.77-.77.36-.77.77-.77Zm-.64,2.7h1.3v6.69h-1.3v-6.69Z"/><path class="cls-5" d="m161.21,38.62c0-2.39,1.6-3.47,3.25-3.47s3.27,1.08,3.27,3.47-1.59,3.47-3.27,3.47-3.25-1.08-3.25-3.47Zm3.25,2.38c1.08,0,2.03-.73,2.03-2.38s-.95-2.38-2.03-2.38-2.02.73-2.02,2.38.94,2.38,2.02,2.38Z"/><path class="cls-5" d="m171.93,36.24c-1.05,0-1.79.66-1.79,1.85v3.87h-1.3v-6.69h1.3v1.34h.04c.12-.5.76-1.47,2.25-1.47,1.31,0,2.37.76,2.37,2.65v4.17h-1.3v-3.87c0-1.2-.51-1.85-1.57-1.85Z"/><path class="cls-5" d="m85.5,48.39h5.6v.71h-4.81v3.32h4.43v.67h-4.43v3.6h4.94v.71h-5.72v-9Z"/><path class="cls-5" d="m94.5,54.01l-2.35-3.31h.86l1.92,2.73,1.9-2.73h.87l-2.37,3.31,2.41,3.38h-.86l-1.96-2.82-1.96,2.82h-.87l2.4-3.38Z"/><path class="cls-5" d="m98.63,54.06c0-2.33,1.45-3.49,3.19-3.49,1.2,0,2.53.55,2.78,2.3h-.7c-.22-1.21-1.17-1.65-2.1-1.65-1.38,0-2.44.94-2.44,2.83s1.07,2.8,2.44,2.8c.93,0,1.88-.42,2.1-1.69h.7c-.25,1.79-1.57,2.34-2.78,2.34-1.74,0-3.19-1.13-3.19-3.46Z"/><path class="cls-5" d="m105.42,54.07c0-2.42,1.36-3.5,3.06-3.5s2.92,1.12,2.92,3.25c0,.22-.01.35-.04.46h-5.21c.05,1.74.9,2.61,2.41,2.61.81,0,1.68-.26,2.04-1.3h.71c-.46,1.47-1.6,1.92-2.77,1.92-1.88,0-3.13-1.14-3.13-3.45Zm5.25-.39c-.01-1.65-.88-2.5-2.2-2.5s-2.24.81-2.32,2.5h4.51Z"/><path class="cls-5" d="m112.59,48.39h.76v9h-.76v-9Z"/><path class="cls-5" d="m120.37,49.11h-2.92v-.72h6.62v.72h-2.92v8.28h-.78v-8.28Z"/><path class="cls-5" d="m124.89,54.07c0-2.42,1.36-3.5,3.06-3.5s2.92,1.12,2.92,3.25c0,.22-.01.35-.04.46h-5.21c.05,1.74.9,2.61,2.41,2.61.81,0,1.68-.26,2.04-1.3h.71c-.46,1.47-1.6,1.92-2.77,1.92-1.88,0-3.13-1.14-3.13-3.45Zm5.25-.39c-.01-1.65-.88-2.5-2.2-2.5s-2.24.81-2.32,2.5h4.51Z"/><path class="cls-5" d="m139.15,51.23c-1.21,0-1.9.85-1.9,2.2v3.96h-.76v-3.96c0-1.35-.51-2.2-1.74-2.2s-1.93.85-1.93,2.2v3.96h-.76v-6.69h.76v1.29c.1-.4.66-1.42,2.16-1.42.94,0,1.76.4,2.1,1.48.19-.49.76-1.48,2.29-1.48,1.26,0,2.29.68,2.29,2.73v4.09h-.76v-3.96c0-1.35-.51-2.2-1.75-2.2Z"/><path class="cls-5" d="m143.18,50.7h.76v1.18c.53-.89,1.5-1.31,2.5-1.31,1.59,0,3.04,1.08,3.04,3.47s-1.44,3.47-3.04,3.47c-.99,0-1.97-.42-2.5-1.31v3.63h-.76v-9.13Zm3.15,6.17c1.25,0,2.42-.9,2.42-2.83s-1.17-2.83-2.42-2.83-2.43.9-2.43,2.83,1.21,2.83,2.43,2.83Z"/><path class="cls-5" d="m150.67,48.39h.76v9h-.76v-9Z"/><path class="cls-5" d="m152.63,55.73c0-1.08.69-1.71,2.1-1.88l1.76-.21c.76-.08.99-.26.99-.46v-.37c0-1.2-.6-1.63-1.85-1.63s-1.87.45-1.87,1.36v.15h-.73v-.21c0-1.34.96-1.92,2.62-1.92s2.59.66,2.59,2.25v4.57h-.73v-1.22h-.04c-.19.4-1.03,1.35-2.66,1.35-1.3,0-2.17-.59-2.17-1.79Zm2.33,1.16c1.71,0,2.52-1.17,2.52-1.8v-1.2c-.04.15-.31.3-1.04.39l-1.53.17c-1.16.14-1.52.59-1.52,1.23,0,.91.71,1.21,1.57,1.21Z"/><path class="cls-5" d="m160.37,55.96v-4.62h-1.07v-.64h1.07v-1.66h.76v1.66h1.34v.64h-1.34v4.45c0,.78.28,1.04,1.02,1.04.15,0,.27,0,.42-.03v.6c-.19.04-.41.06-.66.06-.89,0-1.54-.36-1.54-1.52Z"/><path class="cls-5" d="m163.4,54.07c0-2.42,1.36-3.5,3.06-3.5s2.92,1.12,2.92,3.25c0,.22-.01.35-.04.46h-5.21c.05,1.74.9,2.61,2.41,2.61.81,0,1.68-.26,2.04-1.3h.71c-.46,1.47-1.6,1.92-2.77,1.92-1.88,0-3.13-1.14-3.13-3.45Zm5.25-.39c-.01-1.65-.88-2.5-2.2-2.5s-2.24.81-2.32,2.5h4.51Z"/></g></g></svg>