<?xml version="1.0" encoding="UTF-8"?><svg id="Layer_2" xmlns="http://www.w3.org/2000/svg" xmlns:xlink="http://www.w3.org/1999/xlink" viewBox="0 0 400.82 188.35"><defs><style>.cls-1{fill:url(#linear-gradient-3);stroke:url(#linear-gradient-4);}.cls-1,.cls-2{stroke-miterlimit:10;}.cls-3{fill:url(#linear-gradient-2);}.cls-2{fill:none;stroke:url(#linear-gradient);}</style><linearGradient id="linear-gradient" x1="0" y1="94.18" x2="400.82" y2="94.18" gradientTransform="matrix(1, 0, 0, 1, 0, 0)" gradientUnits="userSpaceOnUse"><stop offset="0" stop-color="#082241"/><stop offset=".08" stop-color="#092644"/><stop offset=".17" stop-color="#0c334f"/><stop offset=".26" stop-color="#114960"/><stop offset=".35" stop-color="#186879"/><stop offset=".45" stop-color="#218f98"/><stop offset=".47" stop-color="#2499a0"/><stop offset="1" stop-color="#259fa5"/></linearGradient><linearGradient id="linear-gradient-2" x1="52.11" y1="89.59" x2="181.72" y2="150.62" xlink:href="#linear-gradient"/><linearGradient id="linear-gradient-3" x1="103.81" y1="103.7" x2="191.48" y2="114.23" gradientTransform="matrix(1, 0, 0, 1, 0, 0)" gradientUnits="userSpaceOnUse"><stop offset="0" stop-color="#63c086"/><stop offset="1" stop-color="#2fc0d0"/></linearGradient><linearGradient id="linear-gradient-4" x1="116.13" y1="105.29" x2="161.59" y2="109.29" xlink:href="#linear-gradient-3"/></defs><g id="Layer_1-2"><g><path class="cls-2" d="M73.32,123.34c1.91-.44,3.82-.85,5.74-1.24,4.72-.96,9.55-2.7,14.42-1.86,.92,.16,1.82,.39,2.7,.69,.66,.23,1.79,.5,2.07,1.25,.21,.58-.07,1.41-.16,2.01-.11,.73-.26,1.46-.41,2.19-.95,4.54-2.43,8.99-3,13.6-.68,5.46-.35,11.05-1.64,16.43-.98,4.12-2.9,7.99-3.72,12.14-.35,1.8-.36,3.97,1.07,5.1-.3-.8-.36-1.68-.17-2.51,1.91,2.49,2.12,5.82,2.69,8.9s1.91,6.45,4.83,7.57c-.07-1.62-1.17-2.98-2.07-4.32s-1.69-3.03-1.08-4.53l2.12,2.49c.13,.16,.28,.32,.48,.39,.49,.17,.97-.4,.94-.91s-.38-.94-.71-1.34c-2.25-2.74-4.1-5.91-4.69-9.41s.24-7.34,2.71-9.88c2.89,3.53,5.31,7.44,7.16,11.61,.59,1.33,1.25,2.8,2.58,3.38,.36,.16,.82,.22,1.13-.03,.44-.36,.27-1.06,.05-1.58-3.84-9.31-10.72-17.75-9.09-28.42,1.21-.54,2.35-1.37,3.67-1.26,1.78,.14,2.53,2.65,3.68,4.35,5.58,8.23,9.12,20.11,12.07,20.15,1.51,.02-.48-2.99-.72-4.49-.06-.39-.07-.88,.28-1.06,.25-.13,.55,0,.81,.12l4.93,2.41c.2-.81-.64-1.48-1.39-1.86-1.63-.83-3.35-1.49-4.87-2.51s-2.85-2.48-3.21-4.27c2,.55,3.75,1.73,5.61,2.63s4.04,1.52,5.99,.84l-4.68-1.72c-.28-.1-.58-.23-.71-.49-.31-.64,.62-1.16,1.33-1.21s1.67-.26,1.66-.97c-4.4,1.23-8.64-1.18-11.78-4.51-2.05-2.17-3.57-4.59-4.62-7.38-.34-.92-.66-1.86-1.12-2.73-.8-1.51-2.31-2.55-2.99-4.14-.68-1.61-.01-3.4,.24-5.03,.42-2.73,.35-5.48,.56-8.23,.05-.95,.02-2.07,.32-2.98s.91-1.71,1.38-2.52c.6-1.02,1.12-2.08,1.92-2.97,1.76-1.98,4.06-3.38,6.55-4.23,1.78-.61,3.71-.71,5.57-.61,2.04,.12,4.02,.55,6.04,.78,2.18,.24,4.38,.29,6.57,.39,7.67,.35,15.31,1.18,22.98,1.63,7.69,.46,15.37,.57,23.07,.6,7.68,.03,15.36-.33,23.01-1.07,7.43-.72,14.78-1.88,22.12-3.22,6.52-1.2,13.04-2.44,19.6-3.42,8.93-1.33,17.94-2.1,26.99-1.6,5.58,.31,11.09,1.36,16.42,3.02,3.47,1.07,7.33,2.29,10.44,4.26,3.2,2.03,6.4,4.06,9.61,6.08,6.38,4.01,12.78,7.99,19.26,11.84,5.68,3.37,11.4,6.68,17.2,9.83,3.46,1.88,7,3.75,9.83,6.49s4.89,6.55,4.6,10.47c-.24,3.23-1.95,6.77-.15,9.45-1.72,1.39-.23,5.39,3.01,3.41,2.37-2.66-.86-3.79-.86-3.79,0,0-1.45-4.04-1.24-5.44,.57-3.8,2.06-3.5,3.08-1.31,.18,.38,.55,.94,.86,1.22,2.32,2.14,5.28,3.31,7.61,5.4,1.75,1.57,2.47,3.77,3.02,5.98,.37,1.51,.71,3.06,.55,4.6-.07,.68-.24,1.34-.32,2.02-.08,.68-.06,1.39,.23,2s.89,1.12,1.57,1.14c.48,.01,.95-.21,1.33-.5,.38-.28,.69-.64,.85-1.08,.34-.96-.26-1.49-.75-2.03-.33-.36-.63-.75-.9-1.16-.34-.53-.64-1.18-.18-1.77,.25-.32,.65-.47,1.05-.45,.95,.05,1.59,.75,2.17,1.41l2.16,2.47c.08,.1,.17,.2,.2,.32,.03,.13,0,.27-.02,.4-.08,.52,0,1.09,.33,1.5,.41,.52,1.11,.72,1.76,.7,.79-.02,1.59-.34,2.08-.97s.57-1.57,.11-2.21c-.42-.59-1.2-.82-1.92-.85-.32-.02-.64,0-.94-.12-.21-.08-.4-.22-.58-.35-2.22-1.68-4.39-3.46-6.21-5.57-.99-1.15-1.9-2.46-2.09-3.96,1.91,.25,3.76,.88,5.51,1.67,.87,.39,1.72,.82,2.56,1.27,.63,.34,1.69,.68,2.17,1.23,.13,.15,1.34,2.71,2.76,1.42,.64-.58,.86-1.51,.62-2.34-.18-.61-.46-1.59-1.11-1.88-.48-.22-.81,.17-1.23,.32-.54,.19-1.05-.19-1.51-.41-.64-.31-1.31-.57-1.97-.83-.87-.34-1.75-.65-2.63-.94-2.84-.92-5.63-1.92-8.33-3.17-2.19-1.02-4.48-2.09-6.21-3.82-.14-.12-.28-.25-.42-.38-3.65-3.44-5.37-9.05-8.09-12.83,.28-2.99,2.32-3.38,4.41-3.47,2.75-.11,5.81,0,8.4,1.01,1.46,.57,2.82,1.54,3.6,2.9,.7,1.23,.89,2.68,1.37,4.01,.88,2.5,2.73,4.54,4.71,6.29,1.43,1.27,3,2.47,3.92,4.15,.58,1.05,.83,2.45,.09,3.39-.29,.36-.72,.67-.74,1.13-.02,.52,.53,.88,1.04,1.02,.66,.18,1.37,.17,2.02-.03,.15-.05,.31-.11,.41-.23,.22-.26,.09-.65-.03-.97-.46-1.22-.65-2.54-.55-3.85,1.63,.87,3.18,1.91,4.6,3.09,.43,.35,.92,.75,1.47,.66,.68-.11,1.01-.88,1.14-1.56,.15-.84,.09-1.86-.62-2.32-.91-.58-2.08,.16-3.16,.11-.95-.05-1.74-.71-2.45-1.34-2.67-2.36-5.34-4.73-8.01-7.09-.53-.47-1.07-.95-1.44-1.56-.37-.61-.55-1.37-.3-2.04,.37-1,1.51-1.45,2.53-1.73,1.79-.5,3.79-.82,5.42,.06,1.55,.84,2.46,2.64,4.09,3.32-.56,.4-.18,1.35,.43,1.68,.57,.32,1.3,.36,1.89,.07,.58-.29,.99-.94,.95-1.59-.02-.37-.2-.74-.5-.94-.36-.23-.82-.21-1.24-.19-.72,.03-1.48,.01-2.08-.37-.61-.38-.96-1.25-.56-1.84,.43-.64,1.37-.61,2.11-.4,.79,.22,1.66,.54,2.38,.09,1.91-2.65-1.45-3.83-2.32-2.4-.17,.28-.23,.61-.42,.86-.46,.61-1.37,.54-2.12,.41l-11.53-2.03c-.67-.12-1.36-.24-1.94-.59-.59-.35-1.06-.97-1.03-1.65,.09-2.17,3.17-2.16,4.67-2.59,2.17-.63,4.13-1.83,6.35-2.3,3.17-.67,6.12,1.26,9.28,.79,.63-.09,1.24-.25,1.84-.5,.24-.1,.5-.2,.77-.17,.56,.08,.88,.76,1.44,.88,.34,.07,.7-.09,.93-.34,.24-.25,.38-.58,.48-.91,.2-.65,.27-1.38-.04-1.99-.3-.61-1.07-1.02-1.69-.74-.37,.16-.61,.51-.9,.79-.62,.6-1.49,.9-2.35,.98-.86,.08-1.73-.05-2.58-.19-.55-.09-1.19-.25-1.43-.75-.12-.25-.12-.55-.07-.82,.23-1.41,1.59-2.54,3.01-2.5,.27,0,.56,.04,.8-.09,.44-.26,.37-.9,.19-1.38-.16-.42-.36-.84-.7-1.14-.33-.3-.82-.47-1.24-.33-.48,.15-.77,.62-1.04,1.05-.66,1.03-1.47,1.96-2.38,2.78-2.31,2.06-5.36,3.18-8.26,4.14-2.14,.71-4.32,1.3-6.52,1.79-6.51,1.44-17.67,3.57-26.62-1.2-4.49-2.39-8.06-5.28-12.19-8.18-2.87-2.01-6.06-3.49-9.07-5.28-3.11-1.85-5.99-4.05-9.01-6.04-3.04-1.99-6.07-4.01-9.22-5.84-3.36-1.95-6.81-3.75-10.29-5.49,0,0-.47-.47-.47-.95,.78-.03,1.36-.03,1.8,0h30.44c3.79,0,7.11-.95,10.91-1.42,2.84-.47,5.22-1.42,8.06-2.37l8.53-4.27c.51-.25,1.2-.34,1.76-.46,.61-.13,1.22-.24,1.84-.32,1.22-.16,2.46-.22,3.69-.2,2.48,.04,4.96,.45,7.41,.84,2.17,.35,4.34,.82,6.51,1.14,1.32,.2,2.66,.2,3.98,.34,1.18,.13,2.69,.26,3.38,1.37,.82,1.3,.2,3.79,2.36,3.9,.59,.03,1.17-.18,1.68-.48,1.06-.63,2.11-1.97,1.72-3.28-.26-.84-1.25-1.53-2.11-1.12-.3,.14-.56,.4-.9,.4-.31,0-.59-.24-.72-.53-.45-1.03,.69-1.71,1.52-1.9,.42-.1,.85-.16,1.27-.26,.36-.09,.72-.22,.99-.48,.53-.51,.32-1.16,0-1.71-.33-.56-.81-1.12-1.41-1.4-.32-.15-.69-.2-1.03-.09-.39,.13-.68,.47-.9,.81-.51,.81-.94,1.45-1.88,1.8-.85,.32-1.79,.37-2.69,.36-1.66-.01-3.34-.07-4.97-.42-.81-.18-1.62-.43-2.37-.8-.61-.3-1.2-.62-1.71-1.08-.84-.74,.8-1.05,1.28-1.2,.62-.19,1.27-.29,1.92-.31,1.29-.04,2.61,.25,3.75,.86,.27,.15,.54,.32,.85,.39,1.06,.26,2.14-1,1.73-2.01-.46-1.12-1.92-.98-2.63-.26-.45-.84-.43-2.13,.15-2.9,.28-.37,.73-.63,1.2-.6,.54,.04,1.12,.43,1.64,.17,.61-.3,.57-1.17,.24-1.66-.38-.58-1.07-.85-1.69-1.08-.31-.12-.69-.22-1.02-.14-.72,.17-.3,.85-.8,1.53-1.22,.8-2.4,1.63-3.59,2.46-1.81,1.27-3.66,2.56-5.78,3.21-1.75,.53-3.63,.59-5.41,.18l.59,.33-1.79-.67c.49-1.72,2.01-2.93,3.48-3.95,4.12-2.84,8.56-5.18,13.1-7.27,1.38-.64,2.75-1.32,4.1-2.01,.59-.3,1.19-.62,1.73-.99,.62-.43,1.17-.94,1.86-1.29,.62-.32,1.32-.47,2.01-.61,.96-.2,1.92-.42,2.89-.63,.86-.19,1.75-.46,2.63-.51,.27-.01,.54,0,.78,.13,.54,.29,.7,.99,1.15,1.39,.4,.36,.95,.45,1.47,.57s1.08,.29,1.37,.74c.18,.27,.25,.66,.56,.82,.35,.18,.81,0,1.1-.22,.43-.32,.74-.8,.86-1.32,.06-.27,.06-.58-.08-.82-.34-.6-1-.19-1.46,.01-.84,.39-1.92,.19-2.58-.46-.21-.21-.39-.49-.34-.78,.04-.3,.31-.52,.55-.71,.4-.31,.8-.62,1.27-.79s1.02-.2,1.45,.06c.21,.13,.39,.32,.63,.38,.77,.19,1.03-.79,.92-1.35-.08-.42-.25-.81-.49-1.16-.2-.28-.5-.55-.84-.52-.21,.02-.4,.15-.55,.3-.5,.5-.7,1.27-1.29,1.66-.68,.45-1.74,.21-2.13-.51-.44-.82,.12-1.98,1.03-2.16,.54-.11,1.17-.17,1.12-.9-.02-.3-.19-.59-.42-.78s-.52-.32-.81-.4c-.31-.09-.64-.13-.96-.07s-.62,.23-.79,.51c-.31,.52,.1,.88,.29,1.34,.37,.91-.46,1.93-1.39,2.24s-1.95,.18-2.93,.28c-2.84,.31-5.16,2.67-8.13,2.31-.05,0-.1-.01-.14-.04-.07-.04-.1-.13-.09-.22,.04-.47,.52-.96,.82-1.3,.42-.48,.92-.89,1.45-1.23,1.03-.65,2.25-1.04,3.47-1.05,.26,0,.53,.01,.76-.11,.51-.27,.51-1.02,.29-1.55-.31-.75-.92-1.37-1.66-1.69-.36-.15-.79-.24-1.11-.03-.37,.24-.44,.74-.57,1.16-.37,1.17-1.4,1.99-2.37,2.73-.69,.53-1.84,.98-2.27,.22-.32-.56,.17-1.24,.68-1.65,.76-.61,1.64-1.43,.71-2.36-.3-.3-.69-.47-1.09-.6-.81-.26-1.68-.32-2.51-.18-.39,.07-.82,.21-1.01,.56-.15,.27-.12,.6,0,.89s.3,.53,.46,.79c1.21,1.95,1.16,4.64-.17,6.51-.32,.45-.7,.84-1.02,1.29-.34,.47-.52,1.01-.83,1.49-.65,.98-1.45,1.86-2.35,2.62-2.05,1.75-4.5,2.94-6.88,4.2-3.06,1.63-6.12,3.47-7.85,6.64-3.57,1.49-4.12-1.45-4.03-3.28,.18-3.62,2.07-6.86,3.64-10.03,.88-1.78,2.28-3.3,3.97-4.34,.32-.2,.66-.38,1-.54,1.42-.66,2.97-1,4.52-1.2,.28-.04,.58-.06,.84,.06,.37,.19,.51,.64,.79,.96,.46,.54,1.37,.61,1.91,.15s.62-1.37,.17-1.91c-.4-.48-1.07-.63-1.62-.93s-1.02-1-.68-1.53c.46-.7,1.86-.32,2.14-1.11,.1-.3-.03-.63-.19-.9-.32-.58-.77-1.14-1.39-1.37s-1.45-.02-1.71,.59c-.11,.25-.17,.6-.44,.65-.16,.03-.31-.07-.43-.18-.51-.48-.67-1.29-.39-1.93,.16-.37,.46-.72,.43-1.12-.06-.64-1-.88-1.5-.47s-.59,1.14-.48,1.77,.4,1.23,.51,1.86c.2,1.14-.22,2.38-1.07,3.17s-2.12,1.11-3.24,.81c-.23-.06-.46-.15-.61-.33-.35-.44,.03-1.11,.5-1.42s1.06-.48,1.39-.93c.42-.56,.28-1.4-.2-1.9-.27-.28-.66-.47-1.05-.44s-.77,.33-.83,.71c-.04,.27,.06,.54,.1,.81,.17,1.13-.73,2.09-1.34,3.06-1.31,2.1-1.33,4.79-2.58,6.92-.15,.26-.34,.53-.62,.64s-.67,0-.75-.29c-.04-.14,0-.28,.04-.42,.94-3.4,2.78-6.49,3.76-9.88,.14-.49,.26-1.02,.09-1.49-.32-.89-1.43-1.14-2.37-1.22-.36-.03-.74-.06-1.09,.04s-.67,.37-.75,.72c-.06,.3,.06,.6,.18,.88,.27,.64,.55,1.28,.66,1.96,.21,1.27-.17,2.56-.68,3.74s-1.15,2.31-1.52,3.54c-.71,2.38-.19,4.79-.42,7.2-.05,.56-.11,1.13-.18,1.69-.22,1.96-.48,3.92-.47,5.9,0,.08,0,.15,0,.23,.01,.82,.25,2.03-.33,2.73-.25,.3-.65,.44-1.02,.57-1.03,.37-1.95,.94-2.92,1.43-1.03,.52-2.08,1.01-3.13,1.46-1.93,.83-3.87,1.69-5.91,2.22-2.43,.62-4.82,.67-7.3,.71-2.6,.04-5.19,.05-7.79,.04-5.19-.02-10.39-.12-15.58-.24s-10.39-.25-15.58-.34-10.39-.13-15.58-.06c-1.34,.02-2.68,.04-4.03,.08-2.96,.07-7.8,.38-10.75,.62-3.79,.31-7.56,.43-11.33,.81-3.81,.38-7.62,.72-11.42,1.12-1.92,.2-3.84,.42-5.76,.67-1.86,.24-3.67,.65-5.51,.99-.34,.06-.69,.13-1.03,.19-3.79,.65-7.59,1.24-11.4,1.75-7.48,1-15,1.73-22.54,2.15-7.46,.42-14.93,.54-22.39,.37-7.51-.17-15.02-.63-22.49-1.37-3.34-.33-6.66-.83-9.99-1.14-9.29-.89-18.27-3.56-26.3-8.37-6.36-3.81-2.16-16.19,2.11-20.08,3.71-3.37,8.59-4.15,13.35-2.9,3.92,1.03,7.64,2.71,11.61,3.59,3.16,.7,6.45,.95,9.62,.3-2.81-1.1-5.76-1.47-8.66-2.23-1.31-.34-3.43-.73-3.75-2.33-.35-1.74,1.52-2.53,2.88-2.78,3.82-.69,6.87,1.03,10.24,2.56,.53,.24,1.1,.54,1.68,.55,.1-.19,.03-.37-.16-.5-.75-.51-1.27-1.33-2.13-1.83s-1.77-.96-2.55-1.64c-.81-.71,.24-1.47,.93-1.66,.88-.24,1.94-.11,2.79-.51,.44-.21,.95-.78,1.17-1.2,.19-.35,.23-.81,0-1.13-.22-.3-.62-.42-.98-.39s-.71,.18-1.05,.33c-3.39,1.47-6.95,2.57-10.4,3.88-4.38,1.66-15.28,4.88-17.95-1.12-.47-1.07,.56-3.79,.89-4.85,.49-1.53,1.15-3,1.95-4.39,1.75-3.01,4.26-5.45,6.97-7.6,3.86-3.07,7.62-4.94,8.67-10.18,0-.46,0-.92-.44-1.39-1.08-1.13-2.44,1.13-2.47,1.99-.01,.34,0,.72-.2,.99-.93,1.24-1.13-2.71-1.08-3.12,.3-2.19,.78-4.34,1.26-6.49,.19-.87,.96-3.86-.29-4.28-.87-.29-1.64,3.19-2.65,3.6-.64,.27-1.38,.08-2.04-.16s-1.31-.56-2.01-.55c-.25,0-.53,.07-.68,.27-.21,.29-.06,.7,.14,1,.74,1.11,1.86,2.04,2.61,3.18,1.31,1.99,1.29,5.27,.94,7.57-.48,3.19-2.32,5.37-4.63,7.47-1.75,1.59-3.79,.99-3.18-1.56,.27-1.15,1.03-2.05,1.68-3,.3-.43,.81-1.05,.86-1.58,.14-1.35-.93-.98-1.54-.33-.67,.71-1.05,1.68-1.48,2.54-1.78,3.21-2.91,6.72-4.09,10.18-1.24,3.65-2.02,7.42-3.44,11-1.83,4.62-4.29,9.74-8.82,12.26-5.56,3.09-11.47,.26-15.3-4.1-1.99-2.26-4.66-4.56-5.85-7.37-2.19-5.19-1.12-10.74,.28-15.98,1.23-4.56,2.97-8.97,5.21-13.14,2.7-5.02,5.48-10.06,6.87-15.61,.82-3.29,3.5-6.65,5.83-9,2.87-2.89,6.14-4.57,9.8-6.22,.34-.15,.68-.31,1.04-.38,.34-.07,.7-.06,1.05-.11,1.45-.19,2.67-1.27,2.67-2.79-.47-.95-1.42-.47-1.9-.47-1.12,0-2.74,1.71-3.57,2.32-.53,.39-1.33,.77-1.78,.28-.25-.27-.25-.7-.09-1.03s.45-.58,.73-.81c1.42-1.17,2.95-2.21,4.5-3.2,.7-.45,1.51-1.1,1.34-1.92-.17-.85-1.36-1.11-2.12-.7s-1.21,1.21-1.67,1.95c-1.59,2.53-3.8,4.4-5.89,6.48-1.94,1.92-3.86,3.9-5.7,5.92-3.81,4.18-6.87,8.68-8.98,13.94-.46,1.15-4.72,6.14-5.32,3.54-.79-3.49,1.45-7.57,2.62-10.73,.24-.66,.85-3.24-.61-2.46-1.75,.93-1.16,3.96-2.83,5.16,.14-.1,.06-2.51,.1-2.84,.11-.93,.32-1.84,.4-2.77,.16-2.01-.14-4.07-.89-5.95-.19-.47-.46-.97-.95-1.1-.53-.13-1.05,.27-1.33,.74-1.37,2.37,.04,4.98,.33,7.42,.32,2.72,.81,5.43,1.12,8.16,.29,2.55,.15,5.04,.15,7.59,0,3.48-1.07,7.25-2.05,10.56-1.1,3.7-2.45,7.35-3.96,10.9-.37,.87-.89,1.85-1.82,1.99-.81,.12-1.55-.47-2.05-1.13-1.23-1.64-1.57-3.76-2-5.77-.44-2.04-1.03-4.08-2.03-5.91-.41-.75-3.74-5.65-4.47-3.34-.41,1.3-.03,3.28,.28,4.58,1.01,4.17,3.64,7.99,5.78,11.67,1.75,3.01,3.34,6.22,3.62,9.69,.24,2.92-.61,6.12-2.77,8.19-3.53,3.39-10.92,2.6-15.23,1.59-11.01-2.56-19.79-11.61-22.68-22.45-2.43-9.13-.07-18.72,3.03-27.38,2.66-7.45,6.28-15.08,12.9-19.41-.37-.65-1.34-.07-2.09-.05-.99,.03-1.65-1.16-1.46-2.13s.95-1.71,1.71-2.35,1.57-1.27,1.97-2.18c.23-.52,.29-1.17-.05-1.62-.47-.63-1.48-.59-2.11-.12s-.97,1.22-1.28,1.94l-4.25,9.85c-.98,2.27-1.97,4.56-3.48,6.52-.64,.83-1.78,1.64-2.62,1.03-.45-.33-.58-.93-.65-1.48-.31-2.6-.12-5.69-2.2-7.29-.3,.84,.04,1.76,.31,2.61,1.39,4.31,1.13,8.99,.37,13.46s-1.98,8.86-2.48,13.37c-.61,5.52,.04,11.02,1.42,16.38-1.24-.29-2.19-1.29-2.88-2.36-1.07-1.66-1.69-3.55-2.49-5.35s-1.88-3.55-2.86-5.29c-2.11-3.77-3.81-7.84-4.39-12.14-.29-2.14-.2-4.3,.11-6.43,.27-1.87,.76-3.7,1.22-5.53,.07-.27,.07-.65-.2-.71-.13-.03-.25,.04-.36,.11-.87,.61-1.1,1.79-1.1,2.85,0,1.11,.12,2.13-.26,3.21-.09,.25-.21,.51-.43,.66-.32,.21-.76,.11-1.05-.13s-.46-.6-.59-.95c-.57-1.48-.72-3.08-1.19-4.59-.35-1.14-1.14-2.81-2.27-3.38-.28-.14-.69-.09-.83,.19-.08,.15-.06,.34-.04,.51,.12,.78,.42,1.52,.72,2.26,1.79,4.49,3.6,9.37,4,14.23,.07,.88,.1,1.76,.07,2.64-.02,.66,.36,2.73-.98,1.99-.31-.17-.53-.47-.74-.75-2.74-3.66-6.13-6.84-9.97-9.32-.46-.3-1.12-.24-1.34,.33-.12,.3-.07,.64,.01,.94,.99,3.68,5.28,5.95,8.22,7.87,10.89,7.09,16.57,19.54,22.49,30.62,1.72,3.23,3.25,6.56,5.1,9.72,1.07,1.83,2.59,3.47,3.8,5.24,.94,1.38,2.99,4.56,1.59,6.2-1.79,2.11-5.81,1.22-8.13,.81-3.71-.66-7.45-1.38-10.83-3.14-4.44-2.32-7.88-6.2-10.32-10.52-1.23-2.18-2.23-4.49-3.01-6.86-.73-2.23-1.25-4.53-2.01-6.75-.07-.21-.16-.44-.35-.57-.49-.34-1.11,.26-1.3,.83-.4,1.22-.12,2.58,.42,3.75s1.33,2.2,2.04,3.28c1.72,2.64,2.92,5.57,4.03,8.52,.13,.34,.25,.73,.06,1.04-.22,.35-.72,.37-1.12,.27-1.31-.33-2.23-1.48-3.32-2.28-.19-.14-.44-.27-.65-.17-.3,.15-.22,.61-.07,.91,1.44,2.98,4.53,4.94,7.13,6.63,.88,.57,1.72,1.2,2.52,1.88,.89,.76,1.92,1.67,2.2,2.87,.22,.94-.17,2.08-1.07,2.42,.25,.34,.73,.4,1.15,.43,6.77,.42,13.75,.27,20.25,2.5,5.38,1.86,9.83,6.31,12.02,11.53,5.13,12.21-4.45,24.96-16.12,28.3-.25,.07-.51,.14-.77,.21-3.22,.82-6.78,.99-9.73-.53-.84-.43-1.61-.99-2.49-1.33-.86-.34-1.79-.46-2.71-.48-3.55-.09-7.08,.76-10.43,1.84-5.05,1.63-10.56,3.32-15.93,3.06-.68-.03-1.62,.12-1.64,.8,0,.18,.07,.36,.17,.5,.5,.72,1.54,.76,2.41,.68,9.4-.86,18.39-6.75,28.01-3.56,.51,.17,2.2,.73,1.9,1.53-.1,.27-.37,.45-.61,.61-3.82,2.39-7.89,4.58-12.14,6.09-3.32,1.17-7,1.87-9.87,4.03-3.54,2.65-5.34,6.76-5.6,11.09,0,.11-.01,.23,.05,.32,.14,.19,.44,.09,.64-.04,2.5-1.61,3.71-4.49,5.8-6.54s4.42-3.42,7-4.49c2.87-1.18,5.86-2.06,8.84-2.94,1.45-.43,3.07-.74,4.44-1.37,.49-.22,1.63-1.49,2.02-.74,.29,.57-.28,.98-.69,1.26-4.12,2.81-7.23,6.56-10.56,10.19-3.34,3.64-7.33,6.68-11.74,8.92l1.47,.24c.15,.03,.31,.05,.43,.15,.39,.31,.05,.94-.35,1.26-1.5,1.2-3.55,1.59-4.95,2.91-.48,.45-.88,1.17-.54,1.74,.34,.57,1.18,.55,1.81,.34,3.24-1.09,4.99-5.06,8.34-5.74l.46,4.58c.07,.68,.44,1.59,1.1,1.41,.55-.15,.58-.91,.51-1.48-.31-2.67-.04-5.4,.76-7.96,.05-.17,.11-.34,.25-.45,.43-.32,.93,.33,1.03,.86,.24,1.34,0,2.75,.38,4.06,.15,.53,.43,1.05,.91,1.31s1.2,.12,1.41-.38c.12-.29,.06-.61-.01-.92-.4-1.68-1.1-3.34-.94-5.06,.1-1.14,.57-2.21,1.11-3.22,2.32-4.29,5.87-7.85,9.55-10.93,.93-.77,1.89-1.5,2.85-2.23,1.31-.99,2.97-2.6,4.58-2.94,.57-.12,1.23,.02,1.57,.48,.43,.58,.24,1.39-.01,2.06-1.55,4.16-4.51,7.57-6.67,11.4-1.45,2.57-3.12,6.49-.92,9.13,.32-.93,.36-1.97,.62-2.92,.24-.9,.45-2.27,1.19-2.88-.02,.02,.69,1.44,.72,1.64,.08,.7,.01,1.63,.64,2.09,.44,.33,.84-2.35,.85-2.56,.28-6.09,3.7-11.39,6.93-16.29,.82-1.25,1.67-2.49,2.52-3.72,.94-1.36,1.71-2.85,2.9-4.01,1.26-1.23,3.65-1.81,4.29,.46,.47,1.67-.59,3.72-1.11,5.29-1.19,3.57-2.56,6.77-3.01,10.54-.75,6.45-.63,13.66,.8,20,.41,1.82,.97,3.7,.56,5.52-.34,1.53-1.36,3.02-.94,4.53,.06,.23,.19,.48,.41,.55,.48,.16,.79-.51,.86-1.01l.32-2.4c.08-.57,.16-1.16,.46-1.66s.89-.86,1.45-.72c.45,.11,.77,.5,1.04,.88,1.91,2.66,3.42,5.97,6.45,7.21,.1,.04,.2,.08,.31,.07,.44-.05,.32-.72,.07-1.09-1.97-2.88-4.85-5.25-5.92-8.58h1.09c-.17-.74-.85-1.23-1.53-1.55s-1.42-.56-1.96-1.07c-.04-.04-.08-.07-.11-.11-.67-.71-.89-1.75-.93-2.73-.25-5.3-.67-10.76-.33-16.13,.26-4.1,1.19-8.12,2.27-12.08,.5-1.84,1.09-3.63,1.33-5.51,.29-2.27,.65-4.69,1.97-6.62,4.4-6.46,14.39-7.31,14.39-7.31Z"/><path class="cls-3" d="M72.22,87.91c-1.46-.04-2.96,.07-4.28,.71-1.19,.58-2.16,1.56-2.92,2.64-2.33,3.31-2.89,7.74-1.68,11.6s4.12,7.11,7.72,8.95c1.79,.91,3.77,1.5,5.78,1.42,3.29-.12,6.38-2.07,8.26-4.77,2.11-3.02,2.82-6.89,2.5-10.54-.01-.14-.03-.28-.06-.42-1.39-6.86-9.3-9.43-15.33-9.59Z"/><path class="cls-1" d="M159.68,107.8c-3.59-.23-7.18-.51-10.75-.87-3.34-.33-6.66-.83-9.99-1.14-7.16-.68-14.13-2.44-20.63-5.4-2,2.43-2.05,6.41-1.03,9.97,.16,0,.33,.01,.49,.02,2.04,.12,4.02,.55,6.04,.78,2.18,.24,4.38,.29,6.57,.39,7.67,.35,15.31,1.18,22.98,1.63,2.43,.14,4.86,.25,7.29,.34-.14-1.92-.56-3.9-.96-5.72Z"/></g></g></svg>