<?xml version="1.0" encoding="UTF-8"?><svg id="Layer_2" xmlns="http://www.w3.org/2000/svg" xmlns:xlink="http://www.w3.org/1999/xlink" viewBox="0 0 139.96 192.61"><defs><style>.cls-1{font-size:12.36px;}.cls-1,.cls-2{font-family:ArticulatCF-Light, 'Articulat CF';font-weight:300;}.cls-1,.cls-2,.cls-3{fill:#2a2a2a;}.cls-4{letter-spacing:-.01em;}.cls-5{fill:url(#linear-gradient);}.cls-6{fill:#d6d6d6;}.cls-7{fill:#5a626b;}.cls-8{letter-spacing:0em;}.cls-9{letter-spacing:0em;}.cls-2{font-size:6.4px;}.cls-3{font-family:ArticulatCF-Medium, 'Articulat CF';font-size:19.21px;font-weight:500;}</style><linearGradient id="linear-gradient" x1="24.9" y1="83.32" x2="24.9" y2="184.06" gradientUnits="userSpaceOnUse"><stop offset="0" stop-color="#62c085"/><stop offset=".03" stop-color="#5fbf89"/><stop offset=".34" stop-color="#48bfb0"/><stop offset=".46" stop-color="#2b9e95"/><stop offset=".6" stop-color="#0f7f7b"/><stop offset=".67" stop-color="#057472"/><stop offset="1" stop-color="#082241"/></linearGradient></defs><g id="Layer_1-2"><g><rect class="cls-7" width="139.96" height="192.61" rx="10.25" ry="10.25"/><path class="cls-6" d="m66.32,80.57c-3.86-1.54-4.74-6.04-6.93-9.38-2.44-3.71-6.37-6.34-10.84-7.03-15.43-2.38-30.87,13.59-23.48,32.24,3.29,8.3,10.85,15.03,15.71,22.5,9.37,14.41,14.33,30.25,6.02,46.37-1.33,2.37-2.8,4.71-4.32,6.96-5.21,7.16-12.26,13.58-19.77,18.23l-1.05.64s-.08.05-.12.07h0s-2.28,1.39-2.28,1.39h62.22c-9.66-4.96-2.61-1.35-9.66-4.96-2.38-1.22-5.25-3.33-5.59-6.39-.14-1.28.16-2.57.58-3.79,1.09-3.19,1.54-4.57,2.67-7.75,1.45-4.06,2.93-8.11,4.18-12.23,2.39-7.89,3.74-16.05,2.57-24.28-.34-2.39-.87-4.75-1.55-7.07-2-6.76-5.16-12.08-8.96-17.95-.95-1.47-1.88-2.96-2.69-4.52-1.52-2.91-2.02-5.02-.96-8.13,1.31-3.87,3.82-4.44,8.34-6.3,3.78-1.56,4.26-1.49,9.94-3.85"/><path class="cls-5" d="m41.21,141.59c-.12-1.12-.29-2.22-.52-3.32-1.19-5.82-3.85-11.16-7.07-16-2.2-3.31-5.03-6.09-7.46-9.24-2.54-3.29-5.03-6.66-7.06-10.32-2.11-3.79-2.81-7.92-2.61-12.1.1-2.16.74-8.57.74-8.57-1.25,2.04-1.54,2.4-2.59,4.16-2.07,3.48-3.79,7.2-4.56,11.34-1.3,7,.79,14.2,4.26,20.45,3.42,6.15,8.51,11.15,10.67,18.01.19.61.36,1.22.52,1.84.02.09.04.18.07.26.03.14.07.27.1.41.02.08.04.16.05.24.04.15.07.31.1.46.03.14.06.29.09.43.45,2.24.69,4.53.69,6.83,0,4.37-1.24,8.14-2.15,12.41-1.29,5.99-3.55,11.84-6.38,17.47-1.47,2.93-3.1,5.8-4.85,8.62-.92,1.48-1.88,2.98-2.79,4.47-.66,1.07-1.33,2.13-2.04,3.16,3.91-2.12,5.09-2.89,6.9-4.25,7.71-5.75,14.69-13.32,19.45-21.3,4.65-7.8,7.4-16.6,6.44-25.48Z"/></g><g><text class="cls-2" transform="translate(36.24 21.02)"><tspan x="0" y="0">Napari</tspan></text><text class="cls-3" transform="translate(12.66 38.97)"><tspan x="0" y="0">Wa</tspan></text><text class="cls-3" transform="translate(40.51 38.97)"><tspan x="0" y="0">v</tspan></text><text class="cls-3" transform="translate(50.65 38.97)"><tspan x="0" y="0">e Br</tspan></text><text class="cls-3" transform="translate(84.4 38.97)"><tspan x="0" y="0">eak</tspan></text><text class="cls-3" transform="translate(115.37 38.97)"><tspan x="0" y="0">er</tspan></text><text class="cls-1" transform="translate(62.49 56.55)"><tspan x="0" y="0">Use</tspan><tspan class="cls-4" x="20.4" y="0">r</tspan><tspan x="24.61" y="0" xml:space="preserve"> M</tspan><tspan class="cls-9" x="37.62" y="0">a</tspan><tspan class="cls-8" x="44.22" y="0">n</tspan><tspan x="50.96" y="0">ual</tspan></text></g></g></svg>