<?xml version="1.0" encoding="UTF-8"?><svg id="Layer_2" xmlns="http://www.w3.org/2000/svg" xmlns:xlink="http://www.w3.org/1999/xlink" viewBox="0 0 139.96 192.61"><defs><style>.cls-1{fill:url(#linear-gradient);}.cls-2{fill:#d6d6d6;}.cls-3{fill:#2a2a2a;}.cls-4{fill:#5a626b;}</style><linearGradient id="linear-gradient" x1="24.9" y1="83.32" x2="24.9" y2="184.06" gradientUnits="userSpaceOnUse"><stop offset="0" stop-color="#62c085"/><stop offset=".03" stop-color="#5fbf89"/><stop offset=".34" stop-color="#48bfb0"/><stop offset=".46" stop-color="#2b9e95"/><stop offset=".6" stop-color="#0f7f7b"/><stop offset=".67" stop-color="#057472"/><stop offset="1" stop-color="#082241"/></linearGradient></defs><g id="Layer_1-2"><g><rect class="cls-4" width="139.96" height="192.61" rx="10.25" ry="10.25"/><path class="cls-2" d="m66.32,80.57c-3.86-1.54-4.74-6.04-6.93-9.38-2.44-3.71-6.37-6.34-10.84-7.03-15.43-2.38-30.87,13.59-23.48,32.24,3.29,8.3,10.85,15.03,15.71,22.5,9.37,14.41,14.33,30.25,6.02,46.37-1.33,2.37-2.8,4.71-4.32,6.96-5.21,7.16-12.26,13.58-19.77,18.23l-1.05.64s-.08.05-.12.07h0s-2.28,1.39-2.28,1.39h62.22c-9.66-4.96-2.61-1.35-9.66-4.96-2.38-1.22-5.25-3.33-5.59-6.39-.14-1.28.16-2.57.58-3.79,1.09-3.19,1.54-4.57,2.67-7.75,1.45-4.06,2.93-8.11,4.18-12.23,2.39-7.89,3.74-16.05,2.57-24.28-.34-2.39-.87-4.75-1.55-7.07-2-6.76-5.16-12.08-8.96-17.95-.95-1.47-1.88-2.96-2.69-4.52-1.52-2.91-2.02-5.02-.96-8.13,1.31-3.87,3.82-4.44,8.34-6.3,3.78-1.56,4.26-1.49,9.94-3.85"/><path class="cls-1" d="m41.21,141.59c-.12-1.12-.29-2.22-.52-3.32-1.19-5.82-3.85-11.16-7.07-16-2.2-3.31-5.03-6.09-7.46-9.24-2.54-3.29-5.03-6.66-7.06-10.32-2.11-3.79-2.81-7.92-2.61-12.1.1-2.16.74-8.57.74-8.57-1.25,2.04-1.54,2.4-2.59,4.16-2.07,3.48-3.79,7.2-4.56,11.34-1.3,7,.79,14.2,4.26,20.45,3.42,6.15,8.51,11.15,10.67,18.01.19.61.36,1.22.52,1.84.02.09.04.18.07.26.03.14.07.27.1.41.02.08.04.16.05.24.04.15.07.31.1.46.03.14.06.29.09.43.45,2.24.69,4.53.69,6.83,0,4.37-1.24,8.14-2.15,12.41-1.29,5.99-3.55,11.84-6.38,17.47-1.47,2.93-3.1,5.8-4.85,8.62-.92,1.48-1.88,2.98-2.79,4.47-.66,1.07-1.33,2.13-2.04,3.16,3.91-2.12,5.09-2.89,6.9-4.25,7.71-5.75,14.69-13.32,19.45-21.3,4.65-7.8,7.4-16.6,6.44-25.48Z"/></g><g><g><path class="cls-3" d="m13.16,25.52h2.04l2.65,10.64h.1l3.13-10.64h2.09l3.11,10.64h.1l2.65-10.64h2.04l-3.55,13.45h-2.11l-3.29-10.91-3.29,10.91h-2.09l-3.57-13.45Z"/><path class="cls-3" d="m32.15,36.36c0-1.92,1.4-2.71,3.19-2.92l2.48-.29c.92-.12,1.23-.29,1.23-.6v-.27c0-1.59-.83-2.02-2.23-2.02s-2.25.42-2.25,1.69v.23h-1.86v-.4c0-2,1.4-3,4.15-3s4.13,1.06,4.13,3.48v6.7h-1.83v-1.61h-.08c-.19.38-1.13,1.81-3.59,1.81-1.86,0-3.34-.83-3.34-2.8Zm3.82,1.29c2.11,0,3.07-1.31,3.07-2.38v-1.1c-.13.21-.38.35-1.36.46l-1.88.25c-1.25.15-1.71.6-1.71,1.38,0,.94.67,1.38,1.88,1.38Z"/></g><path class="cls-3" d="m40.91,28.98h1.98l3,8.15h.08l3-8.15h1.98l-3.8,9.99h-2.44l-3.78-9.99Z"/><g><path class="cls-3" d="m51.25,33.99c0-3.67,2.19-5.21,4.76-5.21s4.55,1.56,4.55,5.05c0,.35-.02.54-.06.75h-7.4c.15,2.09,1.21,3.05,3,3.05,1.23,0,2.17-.44,2.59-1.61h1.73c-.6,2.23-2.31,3.13-4.34,3.13-2.69,0-4.84-1.58-4.84-5.17Zm7.47-.86c-.04-1.75-1.02-2.82-2.73-2.82-1.59,0-2.69.92-2.86,2.82h5.59Z"/><path class="cls-3" d="m66.65,25.52h5.13c2.86,0,4.15,1.34,4.15,3.29,0,1.42-.67,2.36-1.86,2.79,1.75.48,2.75,1.65,2.75,3.48,0,2.23-1.56,3.9-4.92,3.9h-5.24v-13.45Zm5,5.44c1.42,0,2.23-.65,2.23-1.9s-.81-1.84-2.23-1.84h-3v3.75h3Zm.13,6.3c2.02,0,2.92-.98,2.92-2.32s-.9-2.29-2.92-2.29h-3.13v4.61h3.13Z"/><path class="cls-3" d="m78.48,28.98h1.94v2.31h.06c.29-1.17,1.23-2.42,3.05-2.42.25,0,.52.02.75.1v1.63c-.25-.04-.48-.06-.73-.06-1.86,0-3.13,1.21-3.13,3.44v4.99h-1.94v-9.99Z"/></g><g><path class="cls-3" d="m85,33.99c0-3.67,2.19-5.21,4.76-5.21s4.55,1.56,4.55,5.05c0,.35-.02.54-.06.75h-7.4c.15,2.09,1.21,3.05,3,3.05,1.23,0,2.17-.44,2.59-1.61h1.73c-.6,2.23-2.31,3.13-4.34,3.13-2.69,0-4.84-1.58-4.84-5.17Zm7.47-.86c-.04-1.75-1.02-2.82-2.73-2.82-1.59,0-2.69.92-2.86,2.82h5.59Z"/><path class="cls-3" d="m95.5,36.36c0-1.92,1.4-2.71,3.19-2.92l2.48-.29c.92-.12,1.23-.29,1.23-.6v-.27c0-1.59-.83-2.02-2.23-2.02s-2.25.42-2.25,1.69v.23h-1.86v-.4c0-2,1.4-3,4.15-3s4.13,1.06,4.13,3.48v6.7h-1.83v-1.61h-.08c-.19.38-1.13,1.81-3.59,1.81-1.86,0-3.34-.83-3.34-2.8Zm3.82,1.29c2.11,0,3.07-1.31,3.07-2.38v-1.1c-.13.21-.38.35-1.36.46l-1.88.25c-1.25.15-1.71.6-1.71,1.38,0,.94.67,1.38,1.88,1.38Z"/><path class="cls-3" d="m106.47,25.52h1.94v8.47l4.69-5.01h2.19l-4.17,4.3,4.71,5.69h-2.17l-3.75-4.44-1.5,1.54v2.9h-1.94v-13.45Z"/></g><g><path class="cls-3" d="m115.96,33.99c0-3.67,2.19-5.21,4.76-5.21s4.55,1.56,4.55,5.05c0,.35-.02.54-.06.75h-7.4c.15,2.09,1.21,3.05,3,3.05,1.23,0,2.17-.44,2.59-1.61h1.73c-.6,2.23-2.31,3.13-4.34,3.13-2.69,0-4.84-1.58-4.84-5.17Zm7.47-.86c-.04-1.75-1.02-2.82-2.73-2.82-1.59,0-2.69.92-2.86,2.82h5.59Z"/><path class="cls-3" d="m126.95,28.98h1.94v2.31h.06c.29-1.17,1.23-2.42,3.05-2.42.25,0,.52.02.75.1v1.63c-.25-.04-.48-.06-.73-.06-1.86,0-3.13,1.21-3.13,3.44v4.99h-1.94v-9.99Z"/></g><g><path class="cls-3" d="m63.22,53.29v-5.39h.77v5.35c0,1.77.91,2.74,2.48,2.74s2.5-.98,2.5-2.74v-5.35h.77v5.39c0,2.14-1.25,3.39-3.26,3.39s-3.25-1.25-3.25-3.39Z"/><path class="cls-3" d="m70.81,54.82h.67c.15.96,1.06,1.26,1.95,1.26.96,0,1.76-.36,1.76-1.27,0-.74-.49-.95-1.27-1.14l-1.22-.3c-1.08-.26-1.67-.79-1.67-1.68,0-1.1.93-1.69,2.35-1.69s2.34.54,2.42,1.8h-.62c-.16-.9-.82-1.21-1.79-1.21-1.05,0-1.64.35-1.64,1.11,0,.56.32.89,1.2,1.1l1.2.28c1.09.25,1.8.64,1.8,1.71,0,1.42-1.27,1.88-2.52,1.88-1.38,0-2.52-.56-2.61-1.85Z"/><path class="cls-3" d="m76.72,53.36c0-2.32,1.31-3.36,2.94-3.36s2.81,1.08,2.81,3.13c0,.21-.01.33-.04.45h-5.01c.05,1.67.87,2.51,2.31,2.51.78,0,1.62-.25,1.97-1.25h.68c-.44,1.41-1.53,1.84-2.66,1.84-1.8,0-3-1.1-3-3.31Zm5.04-.37c-.01-1.58-.84-2.4-2.11-2.4s-2.15.78-2.23,2.4h4.34Z"/><path class="cls-3" d="m83.61,50.13h.73v1.4h.02c.16-.58.77-1.47,2.09-1.47.15,0,.33.01.47.06v.62c-.15-.02-.3-.02-.46-.02-1.4,0-2.13.98-2.13,2.29v3.56h-.73v-6.43Z"/><path class="cls-3" d="m90.67,47.9h.88l3.47,7.71,3.47-7.71h.88v8.65h-.75v-7.18h-.02l-3.24,7.18h-.67l-3.23-7.18h-.04v7.18h-.75v-8.65Z"/><path class="cls-3" d="m100.53,54.96c0-1.04.67-1.64,2.01-1.8l1.69-.2c.73-.07.95-.25.95-.44v-.36c0-1.15-.58-1.57-1.78-1.57s-1.79.43-1.79,1.31v.15h-.7v-.2c0-1.29.93-1.84,2.52-1.84s2.48.63,2.48,2.16v4.39h-.7v-1.17h-.04c-.19.38-.99,1.3-2.56,1.3-1.25,0-2.09-.57-2.09-1.72Zm2.24,1.11c1.64,0,2.42-1.12,2.42-1.73v-1.15c-.04.15-.3.28-1,.37l-1.47.16c-1.11.14-1.46.57-1.46,1.19,0,.88.68,1.16,1.51,1.16Z"/><path class="cls-3" d="m110.23,50.63c-1.29,0-2.06.82-2.06,2.11v3.81h-.73v-6.43h.73v1.24h.01c.11-.38.73-1.36,2.26-1.36,1.26,0,2.34.66,2.34,2.62v3.93h-.73v-3.81c0-1.3-.53-2.11-1.82-2.11Z"/><path class="cls-3" d="m116.73,56.05c1.29,0,2.06-.82,2.06-2.11v-3.81h.73v6.43h-.73v-1.24h-.01c-.11.38-.73,1.36-2.26,1.36-1.26,0-2.34-.65-2.34-2.62v-3.93h.73v3.81c0,1.3.53,2.11,1.82,2.11Z"/><path class="cls-3" d="m120.67,54.96c0-1.04.67-1.64,2.01-1.8l1.69-.2c.73-.07.95-.25.95-.44v-.36c0-1.15-.58-1.57-1.78-1.57s-1.79.43-1.79,1.31v.15h-.7v-.2c0-1.29.93-1.84,2.52-1.84s2.48.63,2.48,2.16v4.39h-.7v-1.17h-.04c-.19.38-.99,1.3-2.56,1.3-1.25,0-2.09-.57-2.09-1.72Zm2.24,1.11c1.64,0,2.42-1.12,2.42-1.73v-1.15c-.04.15-.3.28-1,.37l-1.47.16c-1.11.14-1.46.57-1.46,1.19,0,.88.68,1.16,1.51,1.16Z"/><path class="cls-3" d="m127.51,47.9h.73v8.65h-.73v-8.65Z"/></g></g></g></svg>