<?xml version="1.0" encoding="UTF-8"?><svg id="Layer_2" xmlns="http://www.w3.org/2000/svg" xmlns:xlink="http://www.w3.org/1999/xlink" viewBox="0 0 2445.79 1646.16"><defs><style>.cls-1{letter-spacing:-.02em;}.cls-2{fill:#fff;font-size:35px;}.cls-2,.cls-3{font-family:ArialMT, Arial;}.cls-4,.cls-5,.cls-6,.cls-7,.cls-8,.cls-9,.cls-10,.cls-11,.cls-12,.cls-13,.cls-14,.cls-15,.cls-16,.cls-17,.cls-18,.cls-19,.cls-20,.cls-21,.cls-22,.cls-23,.cls-24,.cls-25,.cls-26,.cls-27,.cls-28,.cls-29,.cls-30,.cls-31,.cls-32,.cls-33,.cls-34,.cls-35,.cls-36,.cls-37,.cls-38,.cls-39,.cls-40,.cls-41,.cls-42,.cls-43,.cls-44,.cls-45,.cls-46,.cls-47,.cls-48,.cls-49,.cls-50,.cls-51,.cls-52,.cls-53,.cls-54,.cls-55,.cls-56,.cls-57,.cls-58,.cls-59,.cls-60,.cls-61,.cls-62,.cls-63,.cls-64,.cls-65,.cls-66,.cls-67,.cls-68,.cls-69,.cls-70,.cls-71,.cls-72,.cls-73,.cls-74,.cls-75,.cls-76,.cls-77,.cls-78,.cls-79,.cls-80,.cls-81,.cls-82,.cls-83,.cls-84,.cls-85,.cls-86,.cls-87,.cls-88,.cls-89,.cls-90,.cls-91,.cls-92,.cls-93,.cls-94,.cls-95,.cls-96,.cls-97,.cls-98,.cls-99,.cls-100,.cls-101,.cls-102,.cls-103,.cls-104,.cls-105,.cls-106,.cls-107,.cls-108,.cls-109,.cls-110,.cls-111,.cls-112,.cls-113,.cls-114,.cls-115,.cls-116,.cls-117,.cls-118,.cls-119,.cls-120,.cls-121,.cls-122,.cls-123,.cls-124,.cls-125,.cls-126,.cls-127,.cls-128,.cls-129,.cls-130,.cls-131,.cls-132,.cls-133,.cls-134,.cls-135,.cls-136,.cls-137,.cls-138,.cls-139,.cls-140,.cls-141,.cls-142,.cls-143,.cls-144,.cls-145,.cls-146,.cls-147,.cls-148,.cls-149,.cls-150,.cls-151,.cls-152,.cls-153,.cls-154,.cls-155{stroke-miterlimit:10;}.cls-4,.cls-5,.cls-6,.cls-9,.cls-10,.cls-12,.cls-13,.cls-14,.cls-15,.cls-16,.cls-17,.cls-18,.cls-19,.cls-20,.cls-21,.cls-22,.cls-23,.cls-24,.cls-25,.cls-26,.cls-27,.cls-28,.cls-29,.cls-30,.cls-31,.cls-32,.cls-33,.cls-34,.cls-35,.cls-36,.cls-37,.cls-38,.cls-39,.cls-40,.cls-41,.cls-42,.cls-43,.cls-44,.cls-45,.cls-46,.cls-47,.cls-48,.cls-49,.cls-50,.cls-51,.cls-52,.cls-53,.cls-54,.cls-55,.cls-56,.cls-57,.cls-58,.cls-59,.cls-60,.cls-61,.cls-62,.cls-63,.cls-64,.cls-65,.cls-66,.cls-67,.cls-68,.cls-69,.cls-70,.cls-71,.cls-72,.cls-73,.cls-74,.cls-75,.cls-76,.cls-77,.cls-78,.cls-79,.cls-80,.cls-81,.cls-82,.cls-83,.cls-84,.cls-85,.cls-86,.cls-87,.cls-88,.cls-89,.cls-90,.cls-91,.cls-92,.cls-93,.cls-94,.cls-95,.cls-96,.cls-97,.cls-98,.cls-99,.cls-100,.cls-101,.cls-102,.cls-103,.cls-104,.cls-105,.cls-106,.cls-107,.cls-108,.cls-109,.cls-110,.cls-111,.cls-112,.cls-113,.cls-114,.cls-115,.cls-116,.cls-117,.cls-118,.cls-119,.cls-120,.cls-121,.cls-122,.cls-123,.cls-124,.cls-125,.cls-126,.cls-127,.cls-128,.cls-129,.cls-130,.cls-131,.cls-132,.cls-133,.cls-134,.cls-135,.cls-136,.cls-137,.cls-138,.cls-139,.cls-140,.cls-141,.cls-142,.cls-143,.cls-144,.cls-145,.cls-146,.cls-147,.cls-148,.cls-149,.cls-150,.cls-151,.cls-152,.cls-153,.cls-154,.cls-155{fill:none;}.cls-4,.cls-5,.cls-10{stroke-width:3px;}.cls-4,.cls-56{stroke:#fff;}.cls-5,.cls-7,.cls-8,.cls-10,.cls-11,.cls-147{stroke:#868686;}.cls-156{clip-path:url(#clippath);}.cls-6{stroke:url(#linear-gradient);}.cls-6,.cls-12,.cls-13,.cls-14,.cls-15,.cls-16,.cls-17,.cls-18,.cls-19,.cls-20,.cls-21,.cls-22,.cls-23,.cls-24,.cls-25,.cls-26,.cls-27,.cls-28,.cls-29,.cls-30,.cls-31,.cls-32,.cls-33,.cls-34,.cls-35,.cls-36,.cls-37,.cls-38,.cls-39,.cls-40,.cls-41,.cls-42,.cls-43,.cls-44,.cls-45,.cls-46,.cls-47,.cls-48,.cls-49,.cls-50,.cls-51,.cls-52,.cls-53,.cls-54,.cls-55,.cls-57,.cls-58,.cls-59,.cls-60,.cls-61,.cls-62,.cls-63,.cls-64,.cls-65,.cls-66,.cls-67,.cls-68,.cls-69,.cls-70,.cls-71,.cls-72,.cls-73,.cls-74,.cls-75,.cls-76,.cls-77,.cls-78,.cls-79,.cls-80,.cls-81,.cls-82,.cls-83,.cls-84,.cls-85,.cls-86,.cls-87,.cls-88,.cls-89,.cls-90,.cls-91,.cls-92,.cls-93,.cls-94,.cls-95,.cls-96,.cls-97,.cls-98,.cls-99,.cls-100,.cls-101,.cls-102,.cls-103,.cls-104,.cls-105,.cls-106,.cls-107,.cls-108,.cls-109,.cls-110,.cls-111,.cls-112,.cls-113,.cls-114,.cls-115,.cls-116,.cls-117,.cls-118,.cls-119,.cls-120,.cls-121,.cls-122,.cls-123,.cls-124,.cls-125,.cls-126,.cls-127,.cls-128,.cls-129,.cls-130,.cls-131,.cls-132,.cls-133,.cls-134,.cls-135,.cls-136,.cls-137,.cls-138,.cls-139,.cls-140,.cls-141,.cls-142,.cls-143,.cls-144,.cls-145,.cls-146,.cls-148,.cls-149,.cls-150,.cls-151,.cls-152,.cls-153,.cls-154,.cls-155{stroke-width:6px;}.cls-157{fill:#028783;}.cls-158{fill:#00384f;}.cls-159{fill:#00baa7;}.cls-160{fill:#00d8a8;}.cls-161{fill:#007c77;}.cls-162{fill:#868686;}.cls-163{fill:#58616a;}.cls-164,.cls-7,.cls-11{fill:#282828;}.cls-165{fill:#515151;}.cls-7{stroke-width:4px;}.cls-8{fill:aqua;opacity:.3;}.cls-166{fill:url(#linear-gradient-144);}.cls-167{fill:url(#linear-gradient-145);}.cls-9{stroke:#58616a;stroke-width:5px;}.cls-168{clip-path:url(#clippath-1);}.cls-169{clip-path:url(#clippath-3);}.cls-170{clip-path:url(#clippath-2);}.cls-171{clip-path:url(#clippath-7);}.cls-172{clip-path:url(#clippath-8);}.cls-173{clip-path:url(#clippath-5);}.cls-174{clip-path:url(#clippath-9);}.cls-175{clip-path:url(#clippath-12);}.cls-176{clip-path:url(#clippath-10);}.cls-177{clip-path:url(#clippath-11);}.cls-10{stroke-dasharray:0 0 11.97 11.97;}.cls-178{letter-spacing:-.06em;}.cls-12{stroke:url(#linear-gradient-139);}.cls-13{stroke:url(#linear-gradient-133);}.cls-14{stroke:url(#linear-gradient-138);}.cls-15{stroke:url(#linear-gradient-137);}.cls-16{stroke:url(#linear-gradient-134);}.cls-17{stroke:url(#linear-gradient-132);}.cls-18{stroke:url(#linear-gradient-131);}.cls-19{stroke:url(#linear-gradient-130);}.cls-20{stroke:url(#linear-gradient-136);}.cls-21{stroke:url(#linear-gradient-135);}.cls-22{stroke:url(#linear-gradient-142);}.cls-23{stroke:url(#linear-gradient-140);}.cls-24{stroke:url(#linear-gradient-141);}.cls-25{stroke:url(#linear-gradient-143);}.cls-26{stroke:url(#linear-gradient-117);}.cls-27{stroke:url(#linear-gradient-110);}.cls-28{stroke:url(#linear-gradient-127);}.cls-29{stroke:url(#linear-gradient-128);}.cls-30{stroke:url(#linear-gradient-113);}.cls-31{stroke:url(#linear-gradient-116);}.cls-32{stroke:url(#linear-gradient-115);}.cls-33{stroke:url(#linear-gradient-114);}.cls-34{stroke:url(#linear-gradient-118);}.cls-35{stroke:url(#linear-gradient-112);}.cls-36{stroke:url(#linear-gradient-111);}.cls-37{stroke:url(#linear-gradient-119);}.cls-38{stroke:url(#linear-gradient-105);}.cls-39{stroke:url(#linear-gradient-107);}.cls-40{stroke:url(#linear-gradient-100);}.cls-41{stroke:url(#linear-gradient-101);}.cls-42{stroke:url(#linear-gradient-106);}.cls-43{stroke:url(#linear-gradient-102);}.cls-44{stroke:url(#linear-gradient-103);}.cls-45{stroke:url(#linear-gradient-109);}.cls-46{stroke:url(#linear-gradient-104);}.cls-47{stroke:url(#linear-gradient-108);}.cls-48{stroke:url(#linear-gradient-129);}.cls-49{stroke:url(#linear-gradient-126);}.cls-50{stroke:url(#linear-gradient-121);}.cls-51{stroke:url(#linear-gradient-125);}.cls-52{stroke:url(#linear-gradient-124);}.cls-53{stroke:url(#linear-gradient-123);}.cls-54{stroke:url(#linear-gradient-120);}.cls-55{stroke:url(#linear-gradient-122);}.cls-56{stroke-width:2px;}.cls-57{stroke:url(#linear-gradient-39);}.cls-58{stroke:url(#linear-gradient-36);}.cls-59{stroke:url(#linear-gradient-37);}.cls-60{stroke:url(#linear-gradient-27);}.cls-61{stroke:url(#linear-gradient-25);}.cls-62{stroke:url(#linear-gradient-28);}.cls-63{stroke:url(#linear-gradient-29);}.cls-64{stroke:url(#linear-gradient-26);}.cls-65{stroke:url(#linear-gradient-24);}.cls-66{stroke:url(#linear-gradient-35);}.cls-67{stroke:url(#linear-gradient-34);}.cls-68{stroke:url(#linear-gradient-38);}.cls-69{stroke:url(#linear-gradient-33);}.cls-70{stroke:url(#linear-gradient-30);}.cls-71{stroke:url(#linear-gradient-32);}.cls-72{stroke:url(#linear-gradient-31);}.cls-73{stroke:url(#linear-gradient-66);}.cls-74{stroke:url(#linear-gradient-53);}.cls-75{stroke:url(#linear-gradient-65);}.cls-76{stroke:url(#linear-gradient-62);}.cls-77{stroke:url(#linear-gradient-68);}.cls-78{stroke:url(#linear-gradient-67);}.cls-79{stroke:url(#linear-gradient-63);}.cls-80{stroke:url(#linear-gradient-61);}.cls-81{stroke:url(#linear-gradient-64);}.cls-82{stroke:url(#linear-gradient-60);}.cls-83{stroke:url(#linear-gradient-51);}.cls-84{stroke:url(#linear-gradient-52);}.cls-85{stroke:url(#linear-gradient-50);}.cls-86{stroke:url(#linear-gradient-55);}.cls-87{stroke:url(#linear-gradient-56);}.cls-88{stroke:url(#linear-gradient-54);}.cls-89{stroke:url(#linear-gradient-59);}.cls-90{stroke:url(#linear-gradient-69);}.cls-91{stroke:url(#linear-gradient-57);}.cls-92{stroke:url(#linear-gradient-58);}.cls-93{stroke:url(#linear-gradient-70);}.cls-94{stroke:url(#linear-gradient-71);}.cls-95{stroke:url(#linear-gradient-77);}.cls-96{stroke:url(#linear-gradient-78);}.cls-97{stroke:url(#linear-gradient-79);}.cls-98{stroke:url(#linear-gradient-72);}.cls-99{stroke:url(#linear-gradient-73);}.cls-100{stroke:url(#linear-gradient-74);}.cls-101{stroke:url(#linear-gradient-75);}.cls-102{stroke:url(#linear-gradient-76);}.cls-103{stroke:url(#linear-gradient-23);}.cls-104{stroke:url(#linear-gradient-20);}.cls-105{stroke:url(#linear-gradient-14);}.cls-106{stroke:url(#linear-gradient-16);}.cls-107{stroke:url(#linear-gradient-18);}.cls-108{stroke:url(#linear-gradient-15);}.cls-109{stroke:url(#linear-gradient-17);}.cls-110{stroke:url(#linear-gradient-19);}.cls-111{stroke:url(#linear-gradient-10);}.cls-112{stroke:url(#linear-gradient-12);}.cls-113{stroke:url(#linear-gradient-13);}.cls-114{stroke:url(#linear-gradient-11);}.cls-115{stroke:url(#linear-gradient-22);}.cls-116{stroke:url(#linear-gradient-21);}.cls-117{stroke:url(#linear-gradient-87);}.cls-118{stroke:url(#linear-gradient-86);}.cls-119{stroke:url(#linear-gradient-88);}.cls-120{stroke:url(#linear-gradient-89);}.cls-121{stroke:url(#linear-gradient-93);}.cls-122{stroke:url(#linear-gradient-92);}.cls-123{stroke:url(#linear-gradient-90);}.cls-124{stroke:url(#linear-gradient-95);}.cls-125{stroke:url(#linear-gradient-94);}.cls-126{stroke:url(#linear-gradient-97);}.cls-127{stroke:url(#linear-gradient-96);}.cls-128{stroke:url(#linear-gradient-91);}.cls-129{stroke:url(#linear-gradient-98);}.cls-130{stroke:url(#linear-gradient-99);}.cls-131{stroke:url(#linear-gradient-82);}.cls-132{stroke:url(#linear-gradient-83);}.cls-133{stroke:url(#linear-gradient-80);}.cls-134{stroke:url(#linear-gradient-81);}.cls-135{stroke:url(#linear-gradient-84);}.cls-136{stroke:url(#linear-gradient-85);}.cls-137{stroke:url(#linear-gradient-40);}.cls-138{stroke:url(#linear-gradient-41);}.cls-139{stroke:url(#linear-gradient-42);}.cls-140{stroke:url(#linear-gradient-43);}.cls-141{stroke:url(#linear-gradient-47);}.cls-142{stroke:url(#linear-gradient-48);}.cls-143{stroke:url(#linear-gradient-45);}.cls-144{stroke:url(#linear-gradient-46);}.cls-145{stroke:url(#linear-gradient-49);}.cls-146{stroke:url(#linear-gradient-44);}.cls-179{opacity:.42;}.cls-148{stroke:url(#linear-gradient-3);}.cls-149{stroke:url(#linear-gradient-4);}.cls-150{stroke:url(#linear-gradient-2);}.cls-151{stroke:url(#linear-gradient-7);}.cls-152{stroke:url(#linear-gradient-6);}.cls-153{stroke:url(#linear-gradient-5);}.cls-154{stroke:url(#linear-gradient-9);}.cls-155{stroke:url(#linear-gradient-8);}.cls-3{fill:#c5c5c5;font-size:27px;}</style><linearGradient id="linear-gradient" x1="706.98" y1="62.04" x2="783.87" y2="62.04" gradientTransform="matrix(1, 0, 0, 1, 0, 0)" gradientUnits="userSpaceOnUse"><stop offset="0" stop-color="#63be84"/><stop offset="1" stop-color="#2fbece"/></linearGradient><linearGradient id="linear-gradient-2" x1="706.85" y1="89.51" x2="786.24" y2="89.51" xlink:href="#linear-gradient"/><linearGradient id="linear-gradient-3" x1="711.09" y1="118.37" x2="792.01" y2="118.37" xlink:href="#linear-gradient"/><linearGradient id="linear-gradient-4" x1="718.64" y1="147.72" x2="800.96" y2="147.72" xlink:href="#linear-gradient"/><linearGradient id="linear-gradient-5" x1="731.99" y1="178.07" x2="812.94" y2="178.07" xlink:href="#linear-gradient"/><linearGradient id="linear-gradient-6" x1="750.85" y1="207.66" x2="828.84" y2="207.66" xlink:href="#linear-gradient"/><linearGradient id="linear-gradient-7" x1="771.69" y1="240.75" x2="846.48" y2="240.75" xlink:href="#linear-gradient"/><linearGradient id="linear-gradient-8" x1="787.05" y1="270.31" x2="858.72" y2="270.31" xlink:href="#linear-gradient"/><linearGradient id="linear-gradient-9" x1="801.36" y1="304.17" x2="869.86" y2="304.17" xlink:href="#linear-gradient"/><linearGradient id="linear-gradient-10" x1="811.95" y1="339.06" x2="879.23" y2="339.06" xlink:href="#linear-gradient"/><linearGradient id="linear-gradient-11" x1="818.46" y1="374.05" x2="886.5" y2="374.05" xlink:href="#linear-gradient"/><linearGradient id="linear-gradient-12" x1="1382.1" x2="1459" xlink:href="#linear-gradient"/><linearGradient id="linear-gradient-13" x1="1381.98" y1="89.51" x2="1461.36" y2="89.51" xlink:href="#linear-gradient"/><linearGradient id="linear-gradient-14" x1="1386.21" y1="118.37" x2="1467.13" y2="118.37" xlink:href="#linear-gradient"/><linearGradient id="linear-gradient-15" x1="1393.76" y1="147.72" x2="1476.08" y2="147.72" xlink:href="#linear-gradient"/><linearGradient id="linear-gradient-16" x1="1407.12" y1="178.07" x2="1488.07" y2="178.07" xlink:href="#linear-gradient"/><linearGradient id="linear-gradient-17" x1="1425.97" y1="207.66" x2="1503.96" y2="207.66" xlink:href="#linear-gradient"/><linearGradient id="linear-gradient-18" x1="1446.82" y1="240.75" x2="1521.6" y2="240.75" xlink:href="#linear-gradient"/><linearGradient id="linear-gradient-19" x1="1462.18" y1="270.31" x2="1533.84" y2="270.31" xlink:href="#linear-gradient"/><linearGradient id="linear-gradient-20" x1="1476.48" y1="304.17" x2="1544.98" y2="304.17" xlink:href="#linear-gradient"/><linearGradient id="linear-gradient-21" x1="1487.07" y1="339.06" x2="1554.35" y2="339.06" xlink:href="#linear-gradient"/><linearGradient id="linear-gradient-22" x1="1493.59" y1="374.05" x2="1561.62" y2="374.05" xlink:href="#linear-gradient"/><linearGradient id="linear-gradient-23" x1="2109.06" x2="2185.95" xlink:href="#linear-gradient"/><linearGradient id="linear-gradient-24" x1="2108.93" y1="89.51" x2="2188.32" y2="89.51" xlink:href="#linear-gradient"/><linearGradient id="linear-gradient-25" x1="2113.17" y1="118.37" x2="2194.09" y2="118.37" xlink:href="#linear-gradient"/><linearGradient id="linear-gradient-26" x1="2120.72" y1="147.72" x2="2203.04" y2="147.72" xlink:href="#linear-gradient"/><linearGradient id="linear-gradient-27" x1="2134.07" y1="178.07" x2="2215.02" y2="178.07" xlink:href="#linear-gradient"/><linearGradient id="linear-gradient-28" x1="2152.93" y1="207.66" x2="2230.92" y2="207.66" xlink:href="#linear-gradient"/><linearGradient id="linear-gradient-29" x1="2173.77" y1="240.75" x2="2248.56" y2="240.75" xlink:href="#linear-gradient"/><linearGradient id="linear-gradient-30" x1="2189.13" y1="270.31" x2="2260.79" y2="270.31" xlink:href="#linear-gradient"/><linearGradient id="linear-gradient-31" x1="2203.44" y1="304.17" x2="2271.94" y2="304.17" xlink:href="#linear-gradient"/><linearGradient id="linear-gradient-32" x1="2214.03" y1="339.06" x2="2281.31" y2="339.06" xlink:href="#linear-gradient"/><linearGradient id="linear-gradient-33" x1="2220.54" y1="374.05" x2="2288.58" y2="374.05" xlink:href="#linear-gradient"/><clipPath id="clippath"><rect class="cls-11" x="2050.82" y="854.31" width="119.57" height="110.39"/></clipPath><linearGradient id="linear-gradient-34" x1="2093.82" y1="857.53" x2="2170.72" y2="857.53" xlink:href="#linear-gradient"/><linearGradient id="linear-gradient-35" x1="2093.7" y1="885" x2="2173.08" y2="885" xlink:href="#linear-gradient"/><linearGradient id="linear-gradient-36" x1="2097.94" y1="913.86" x2="2178.85" y2="913.86" xlink:href="#linear-gradient"/><linearGradient id="linear-gradient-37" x1="2105.49" y1="943.21" x2="2187.8" y2="943.21" xlink:href="#linear-gradient"/><linearGradient id="linear-gradient-38" x1="2118.84" y1="973.56" x2="2199.79" y2="973.56" xlink:href="#linear-gradient"/><linearGradient id="linear-gradient-39" x1="2137.69" y1="1003.14" x2="2215.69" y2="1003.14" xlink:href="#linear-gradient"/><linearGradient id="linear-gradient-40" x1="2158.54" y1="1036.24" x2="2233.32" y2="1036.24" xlink:href="#linear-gradient"/><linearGradient id="linear-gradient-41" x1="2173.9" y1="1065.79" x2="2245.56" y2="1065.79" xlink:href="#linear-gradient"/><linearGradient id="linear-gradient-42" x1="2188.2" y1="1099.66" x2="2256.7" y2="1099.66" xlink:href="#linear-gradient"/><linearGradient id="linear-gradient-43" x1="2198.79" y1="1134.54" x2="2266.07" y2="1134.54" xlink:href="#linear-gradient"/><linearGradient id="linear-gradient-44" x1="2205.31" y1="1169.54" x2="2273.34" y2="1169.54" xlink:href="#linear-gradient"/><clipPath id="clippath-1"><rect class="cls-11" x="2077.86" y="728.11" width="119.57" height="110.39"/></clipPath><linearGradient id="linear-gradient-45" x1="2001.29" y1="731.33" x2="2078.19" y2="731.33" xlink:href="#linear-gradient"/><linearGradient id="linear-gradient-46" x1="2001.17" y1="758.8" x2="2080.55" y2="758.8" xlink:href="#linear-gradient"/><linearGradient id="linear-gradient-47" x1="2005.4" y1="787.66" x2="2086.32" y2="787.66" xlink:href="#linear-gradient"/><linearGradient id="linear-gradient-48" x1="2012.96" y1="817.01" x2="2095.27" y2="817.01" xlink:href="#linear-gradient"/><linearGradient id="linear-gradient-49" x1="2026.31" y1="847.36" x2="2107.26" y2="847.36" xlink:href="#linear-gradient"/><linearGradient id="linear-gradient-50" x1="2045.16" y1="876.95" x2="2123.16" y2="876.95" xlink:href="#linear-gradient"/><linearGradient id="linear-gradient-51" x1="2066.01" y1="910.04" x2="2140.79" y2="910.04" xlink:href="#linear-gradient"/><linearGradient id="linear-gradient-52" x1="2081.37" y1="939.6" x2="2153.03" y2="939.6" xlink:href="#linear-gradient"/><linearGradient id="linear-gradient-53" x1="2095.67" y1="973.46" x2="2164.17" y2="973.46" xlink:href="#linear-gradient"/><linearGradient id="linear-gradient-54" x1="2106.26" y1="1008.34" x2="2173.54" y2="1008.34" xlink:href="#linear-gradient"/><linearGradient id="linear-gradient-55" x1="2112.78" y1="1043.34" x2="2180.81" y2="1043.34" xlink:href="#linear-gradient"/><clipPath id="clippath-2"><rect class="cls-11" x="2234.05" y="693.49" width="119.57" height="110.39"/></clipPath><linearGradient id="linear-gradient-56" x1="2157.48" y1="578.73" x2="2234.38" y2="578.73" xlink:href="#linear-gradient"/><linearGradient id="linear-gradient-57" x1="2157.36" y1="606.2" x2="2236.74" y2="606.2" xlink:href="#linear-gradient"/><linearGradient id="linear-gradient-58" x1="2161.59" y1="635.07" x2="2242.51" y2="635.07" xlink:href="#linear-gradient"/><linearGradient id="linear-gradient-59" x1="2169.14" y1="664.42" x2="2251.46" y2="664.42" xlink:href="#linear-gradient"/><linearGradient id="linear-gradient-60" x1="2182.5" y1="694.77" x2="2263.45" y2="694.77" xlink:href="#linear-gradient"/><linearGradient id="linear-gradient-61" x1="2201.35" y1="724.35" x2="2279.35" y2="724.35" xlink:href="#linear-gradient"/><linearGradient id="linear-gradient-62" x1="2222.2" y1="757.45" x2="2296.98" y2="757.45" xlink:href="#linear-gradient"/><linearGradient id="linear-gradient-63" x1="2237.56" y1="787" x2="2309.22" y2="787" xlink:href="#linear-gradient"/><linearGradient id="linear-gradient-64" x1="2251.86" y1="820.87" x2="2320.36" y2="820.87" xlink:href="#linear-gradient"/><linearGradient id="linear-gradient-65" x1="2262.45" y1="855.75" x2="2329.73" y2="855.75" xlink:href="#linear-gradient"/><linearGradient id="linear-gradient-66" x1="2268.97" y1="890.74" x2="2337" y2="890.74" xlink:href="#linear-gradient"/><clipPath id="clippath-3"><rect class="cls-11" x="2148.73" y="925.73" width="119.57" height="110.39"/></clipPath><linearGradient id="linear-gradient-67" x1="2191.73" y1="811.97" x2="2268.63" y2="811.97" xlink:href="#linear-gradient"/><linearGradient id="linear-gradient-68" x1="2191.61" y1="839.44" x2="2270.99" y2="839.44" xlink:href="#linear-gradient"/><linearGradient id="linear-gradient-69" x1="2195.84" y1="868.31" x2="2276.76" y2="868.31" xlink:href="#linear-gradient"/><linearGradient id="linear-gradient-70" x1="2203.39" y1="897.66" x2="2285.71" y2="897.66" xlink:href="#linear-gradient"/><linearGradient id="linear-gradient-71" x1="2216.75" y1="928.01" x2="2297.7" y2="928.01" xlink:href="#linear-gradient"/><linearGradient id="linear-gradient-72" x1="2235.6" y1="957.59" x2="2313.59" y2="957.59" xlink:href="#linear-gradient"/><linearGradient id="linear-gradient-73" x1="2256.44" y1="990.69" x2="2331.23" y2="990.69" xlink:href="#linear-gradient"/><linearGradient id="linear-gradient-74" x1="2271.8" y1="1020.24" x2="2343.47" y2="1020.24" xlink:href="#linear-gradient"/><linearGradient id="linear-gradient-75" x1="2286.11" y1="1054.11" x2="2354.61" y2="1054.11" xlink:href="#linear-gradient"/><linearGradient id="linear-gradient-76" x1="2296.7" y1="1088.99" x2="2363.98" y2="1088.99" xlink:href="#linear-gradient"/><linearGradient id="linear-gradient-77" x1="2303.22" y1="1123.98" x2="2371.25" y2="1123.98" xlink:href="#linear-gradient"/><clipPath id="clippath-5"><rect class="cls-11" x="2157.87" y="799.11" width="119.57" height="110.39"/></clipPath><clipPath id="clippath-7"><rect class="cls-11" x="2277.45" y="846.24" width="119.57" height="110.39"/></clipPath><linearGradient id="linear-gradient-78" x1="2200.88" y1="620.31" x2="2277.77" y2="620.31" xlink:href="#linear-gradient"/><linearGradient id="linear-gradient-79" x1="2200.75" y1="647.78" x2="2280.14" y2="647.78" xlink:href="#linear-gradient"/><linearGradient id="linear-gradient-80" x1="2204.99" y1="676.65" x2="2285.91" y2="676.65" xlink:href="#linear-gradient"/><linearGradient id="linear-gradient-81" x1="2212.54" y1="706" x2="2294.86" y2="706" xlink:href="#linear-gradient"/><linearGradient id="linear-gradient-82" x1="2225.89" y1="736.35" x2="2306.84" y2="736.35" xlink:href="#linear-gradient"/><linearGradient id="linear-gradient-83" x1="2244.75" y1="765.93" x2="2322.74" y2="765.93" xlink:href="#linear-gradient"/><linearGradient id="linear-gradient-84" x1="2265.59" y1="799.03" x2="2340.38" y2="799.03" xlink:href="#linear-gradient"/><linearGradient id="linear-gradient-85" x1="2280.95" y1="828.58" x2="2352.62" y2="828.58" xlink:href="#linear-gradient"/><linearGradient id="linear-gradient-86" x1="2295.26" y1="862.45" x2="2363.76" y2="862.45" xlink:href="#linear-gradient"/><linearGradient id="linear-gradient-87" x1="2305.85" y1="897.33" x2="2373.13" y2="897.33" xlink:href="#linear-gradient"/><linearGradient id="linear-gradient-88" x1="2312.36" y1="932.33" x2="2380.4" y2="932.33" xlink:href="#linear-gradient"/><clipPath id="clippath-8"><rect class="cls-11" x="129.08" y="877.57" width="119.57" height="110.39"/></clipPath><linearGradient id="linear-gradient-89" x1="52.52" y1="651.64" x2="129.41" y2="651.64" xlink:href="#linear-gradient"/><linearGradient id="linear-gradient-90" x1="52.39" y1="679.11" x2="131.77" y2="679.11" xlink:href="#linear-gradient"/><linearGradient id="linear-gradient-91" x1="56.63" y1="707.98" x2="137.54" y2="707.98" xlink:href="#linear-gradient"/><linearGradient id="linear-gradient-92" x1="64.18" y1="737.33" x2="146.5" y2="737.33" xlink:href="#linear-gradient"/><linearGradient id="linear-gradient-93" x1="77.53" y1="767.68" x2="158.48" y2="767.68" xlink:href="#linear-gradient"/><linearGradient id="linear-gradient-94" x1="96.38" y1="797.26" x2="174.38" y2="797.26" xlink:href="#linear-gradient"/><linearGradient id="linear-gradient-95" x1="117.23" y1="830.36" x2="192.02" y2="830.36" xlink:href="#linear-gradient"/><linearGradient id="linear-gradient-96" x1="132.59" y1="859.91" x2="204.25" y2="859.91" xlink:href="#linear-gradient"/><linearGradient id="linear-gradient-97" x1="146.89" y1="893.78" x2="215.39" y2="893.78" xlink:href="#linear-gradient"/><linearGradient id="linear-gradient-98" x1="157.48" y1="928.66" x2="224.76" y2="928.66" xlink:href="#linear-gradient"/><linearGradient id="linear-gradient-99" x1="164" y1="963.65" x2="232.04" y2="963.65" xlink:href="#linear-gradient"/><clipPath id="clippath-9"><rect class="cls-11" x="535.62" y="704.52" width="119.57" height="110.39"/></clipPath><linearGradient id="linear-gradient-100" x1="459.06" y1="478.59" x2="535.95" y2="478.59" xlink:href="#linear-gradient"/><linearGradient id="linear-gradient-101" x1="458.93" y1="506.06" x2="538.31" y2="506.06" xlink:href="#linear-gradient"/><linearGradient id="linear-gradient-102" x1="463.17" y1="534.93" x2="544.08" y2="534.93" xlink:href="#linear-gradient"/><linearGradient id="linear-gradient-103" x1="470.72" y1="564.28" x2="553.04" y2="564.28" xlink:href="#linear-gradient"/><linearGradient id="linear-gradient-104" x1="484.07" y1="594.62" x2="565.02" y2="594.62" xlink:href="#linear-gradient"/><linearGradient id="linear-gradient-105" x1="502.92" y1="624.21" x2="580.92" y2="624.21" xlink:href="#linear-gradient"/><linearGradient id="linear-gradient-106" x1="523.77" y1="657.31" x2="598.56" y2="657.31" xlink:href="#linear-gradient"/><linearGradient id="linear-gradient-107" x1="539.13" y1="686.86" x2="610.79" y2="686.86" xlink:href="#linear-gradient"/><linearGradient id="linear-gradient-108" x1="553.43" y1="720.73" x2="621.93" y2="720.73" xlink:href="#linear-gradient"/><linearGradient id="linear-gradient-109" x1="564.02" y1="755.61" x2="631.3" y2="755.61" xlink:href="#linear-gradient"/><linearGradient id="linear-gradient-110" x1="570.54" y1="790.6" x2="638.58" y2="790.6" xlink:href="#linear-gradient"/><clipPath id="clippath-10"><rect class="cls-11" x="535.62" y="877.57" width="119.57" height="110.39"/></clipPath><linearGradient id="linear-gradient-111" x1="459.06" y1="651.64" x2="535.95" y2="651.64" xlink:href="#linear-gradient"/><linearGradient id="linear-gradient-112" x1="458.93" y1="679.11" x2="538.31" y2="679.11" xlink:href="#linear-gradient"/><linearGradient id="linear-gradient-113" x1="463.17" y1="707.98" x2="544.08" y2="707.98" xlink:href="#linear-gradient"/><linearGradient id="linear-gradient-114" x1="470.72" y1="737.33" x2="553.04" y2="737.33" xlink:href="#linear-gradient"/><linearGradient id="linear-gradient-115" x1="484.07" y1="767.68" x2="565.02" y2="767.68" xlink:href="#linear-gradient"/><linearGradient id="linear-gradient-116" x1="502.92" y1="797.26" x2="580.92" y2="797.26" xlink:href="#linear-gradient"/><linearGradient id="linear-gradient-117" x1="523.77" y1="830.36" x2="598.56" y2="830.36" xlink:href="#linear-gradient"/><linearGradient id="linear-gradient-118" x1="539.13" y1="859.91" x2="610.79" y2="859.91" xlink:href="#linear-gradient"/><linearGradient id="linear-gradient-119" x1="553.43" y1="893.78" x2="621.93" y2="893.78" xlink:href="#linear-gradient"/><linearGradient id="linear-gradient-120" x1="564.02" y1="928.66" x2="631.3" y2="928.66" xlink:href="#linear-gradient"/><linearGradient id="linear-gradient-121" x1="570.54" y1="963.65" x2="638.58" y2="963.65" xlink:href="#linear-gradient"/><clipPath id="clippath-11"><rect class="cls-11" x="129.08" y="704.52" width="119.57" height="110.39"/></clipPath><linearGradient id="linear-gradient-122" x1="52.52" y1="478.59" x2="129.41" y2="478.59" xlink:href="#linear-gradient"/><linearGradient id="linear-gradient-123" x1="52.39" y1="506.06" x2="131.77" y2="506.06" xlink:href="#linear-gradient"/><linearGradient id="linear-gradient-124" x1="56.63" y1="534.93" x2="137.54" y2="534.93" xlink:href="#linear-gradient"/><linearGradient id="linear-gradient-125" x1="64.18" y1="564.28" x2="146.5" y2="564.28" xlink:href="#linear-gradient"/><linearGradient id="linear-gradient-126" x1="77.53" y1="594.62" x2="158.48" y2="594.62" xlink:href="#linear-gradient"/><linearGradient id="linear-gradient-127" x1="96.38" y1="624.21" x2="174.38" y2="624.21" xlink:href="#linear-gradient"/><linearGradient id="linear-gradient-128" x1="117.23" y1="657.31" x2="192.02" y2="657.31" xlink:href="#linear-gradient"/><linearGradient id="linear-gradient-129" x1="132.59" y1="686.86" x2="204.25" y2="686.86" xlink:href="#linear-gradient"/><linearGradient id="linear-gradient-130" x1="146.89" y1="720.73" x2="215.39" y2="720.73" xlink:href="#linear-gradient"/><linearGradient id="linear-gradient-131" x1="157.48" y1="755.61" x2="224.76" y2="755.61" xlink:href="#linear-gradient"/><linearGradient id="linear-gradient-132" x1="164" y1="790.6" x2="232.04" y2="790.6" xlink:href="#linear-gradient"/><clipPath id="clippath-12"><rect class="cls-11" x="1345.39" y="748.69" width="239.15" height="220.79"/></clipPath><linearGradient id="linear-gradient-133" x1="1192.3" y1="296.83" x2="1346.01" y2="296.83" xlink:href="#linear-gradient"/><linearGradient id="linear-gradient-134" x1="1192.04" y1="351.77" x2="1350.74" y2="351.77" xlink:href="#linear-gradient"/><linearGradient id="linear-gradient-135" x1="1200.62" y1="409.49" x2="1362.18" y2="409.49" xlink:href="#linear-gradient"/><linearGradient id="linear-gradient-136" x1="1215.86" y1="468.19" x2="1379.94" y2="468.19" xlink:href="#linear-gradient"/><linearGradient id="linear-gradient-137" x1="1242.83" y1="528.89" x2="1403.64" y2="528.89" xlink:href="#linear-gradient"/><linearGradient id="linear-gradient-138" x1="1280.7" y1="588.06" x2="1435.28" y2="588.06" xlink:href="#linear-gradient"/><linearGradient id="linear-gradient-139" x1="1322.46" y1="654.26" x2="1470.48" y2="654.26" xlink:href="#linear-gradient"/><linearGradient id="linear-gradient-140" x1="1353.21" y1="713.36" x2="1494.93" y2="713.36" xlink:href="#linear-gradient"/><linearGradient id="linear-gradient-141" x1="1381.86" y1="781.1" x2="1517.17" y2="781.1" xlink:href="#linear-gradient"/><linearGradient id="linear-gradient-142" x1="1402.94" y1="850.86" x2="1536.01" y2="850.86" xlink:href="#linear-gradient"/><linearGradient id="linear-gradient-143" x1="1415.93" y1="920.85" x2="1550.6" y2="920.85" xlink:href="#linear-gradient"/><linearGradient id="linear-gradient-144" x1="326.65" y1="1614.01" x2="711.16" y2="1173.4" gradientTransform="matrix(1, 0, 0, 1, 0, 0)" gradientUnits="userSpaceOnUse"><stop offset="0" stop-color="#05eb92"/><stop offset=".02" stop-color="#04e994"/><stop offset=".34" stop-color="#04d4bb"/><stop offset=".35" stop-color="#03cfb7"/><stop offset=".5" stop-color="#029d91"/><stop offset=".61" stop-color="#027e79"/><stop offset=".67" stop-color="#027371"/><stop offset="1" stop-color="#032142"/></linearGradient><linearGradient id="linear-gradient-145" x1="2265.94" y1="1372.39" x2="2265.94" y2="1622.43" xlink:href="#linear-gradient-144"/></defs><g id="Layer_1-2"><g><rect class="cls-11" x="663.97" y="55.62" width="239.15" height="342.74"/><path class="cls-165" d="M707.58,55.62s-9.28,84.12,40.19,155.69c75.55,109.31,72.34,187.05,72.34,187.05h70.73s-14.47-124.36-62.69-199.91-44.59-142.83-44.59-142.83h-75.97Z"/><line class="cls-6" x1="707.02" y1="61.57" x2="783.84" y2="62.51"/><line class="cls-150" x1="706.89" y1="89.1" x2="786.21" y2="89.92"/><line class="cls-148" x1="711.23" y1="120.24" x2="791.87" y2="116.5"/><line class="cls-149" x1="718.92" y1="151.59" x2="800.68" y2="143.86"/><line class="cls-153" x1="732.54" y1="185.49" x2="812.4" y2="170.66"/><line class="cls-152" x1="751.55" y1="216.86" x2="828.14" y2="198.45"/><line class="cls-151" x1="772.47" y1="250.57" x2="845.7" y2="230.94"/><line class="cls-155" x1="787.86" y1="280.05" x2="857.91" y2="260.57"/><line class="cls-154" x1="802.2" y1="313.97" x2="869.01" y2="294.38"/><line class="cls-111" x1="812.69" y1="347.5" x2="878.48" y2="330.61"/><line class="cls-114" x1="819.16" y1="382.01" x2="885.8" y2="366.09"/><path class="cls-147" d="M707.58,55.62s-9.28,84.12,40.19,155.69c75.55,109.31,72.34,187.05,72.34,187.05h70.73s-14.47-124.36-62.69-199.91-44.59-142.83-44.59-142.83h-75.97Z"/></g><g><rect class="cls-11" x="1339.1" y="55.62" width="239.15" height="342.74"/><path class="cls-165" d="M1382.7,55.62s-9.28,84.12,40.19,155.69c75.55,109.31,72.34,187.05,72.34,187.05h70.73s-14.47-124.36-62.69-199.91-44.59-142.83-44.59-142.83h-75.97Z"/><line class="cls-112" x1="1382.14" y1="61.57" x2="1458.96" y2="62.51"/><line class="cls-113" x1="1382.01" y1="89.1" x2="1461.33" y2="89.92"/><line class="cls-105" x1="1386.35" y1="120.24" x2="1466.99" y2="116.5"/><line class="cls-108" x1="1394.05" y1="151.59" x2="1475.8" y2="143.86"/><line class="cls-106" x1="1407.66" y1="185.49" x2="1487.52" y2="170.66"/><line class="cls-109" x1="1426.67" y1="216.86" x2="1503.26" y2="198.45"/><line class="cls-107" x1="1447.59" y1="250.57" x2="1520.83" y2="230.94"/><line class="cls-110" x1="1462.98" y1="280.05" x2="1533.03" y2="260.57"/><line class="cls-104" x1="1477.32" y1="313.97" x2="1544.14" y2="294.38"/><line class="cls-116" x1="1487.82" y1="347.5" x2="1553.6" y2="330.61"/><line class="cls-115" x1="1494.28" y1="382.01" x2="1560.93" y2="366.09"/><path class="cls-8" d="M1382.7,55.62s-9.28,84.12,40.19,155.69c75.55,109.31,72.34,187.05,72.34,187.05h70.73s-14.47-124.36-62.69-199.91-44.59-142.83-44.59-142.83h-75.97Z"/></g><g><rect class="cls-11" x="2066.05" y="55.62" width="239.15" height="342.74"/><path class="cls-165" d="M2109.66,55.62s-9.28,84.12,40.19,155.69c75.55,109.31,72.34,187.05,72.34,187.05h70.73s-14.47-124.36-62.69-199.91-44.59-142.83-44.59-142.83h-75.97Z"/><line class="cls-103" x1="2109.1" y1="61.57" x2="2185.92" y2="62.51"/><line class="cls-65" x1="2108.96" y1="89.1" x2="2188.29" y2="89.92"/><line class="cls-61" x1="2113.31" y1="120.24" x2="2193.95" y2="116.5"/><line class="cls-64" x1="2121" y1="151.59" x2="2202.76" y2="143.86"/><line class="cls-60" x1="2134.62" y1="185.49" x2="2214.48" y2="170.66"/><line class="cls-62" x1="2153.63" y1="216.86" x2="2230.22" y2="198.45"/><line class="cls-63" x1="2174.55" y1="250.57" x2="2247.78" y2="230.94"/><line class="cls-70" x1="2189.94" y1="280.05" x2="2259.99" y2="260.57"/><line class="cls-72" x1="2204.28" y1="313.97" x2="2271.09" y2="294.38"/><line class="cls-71" x1="2214.77" y1="347.5" x2="2280.56" y2="330.61"/><line class="cls-69" x1="2221.24" y1="382.01" x2="2287.88" y2="366.09"/><path class="cls-8" d="M2109.66,55.62s-9.28,84.12,40.19,155.69c75.55,109.31,72.34,187.05,72.34,187.05h70.73s-14.47-124.36-62.69-199.91-44.59-142.83-44.59-142.83h-75.97Z"/></g><rect class="cls-4" x="2066.05" y="55.62" width="239.15" height="342.74"/><line class="cls-4" x1="2185.63" y1="55.62" x2="2185.63" y2="398.36"/><line class="cls-4" x1="2066.05" y1="173.02" x2="2305.2" y2="173.02"/><line class="cls-4" x1="2066.05" y1="285.97" x2="2305.2" y2="285.97"/><g><rect class="cls-164" x="2050.82" y="854.31" width="119.57" height="110.39"/><g class="cls-156"><g><rect class="cls-11" x="2050.82" y="851.11" width="239.15" height="342.74"/><path class="cls-165" d="M2094.42,851.11s-9.28,84.12,40.19,155.69c75.55,109.31,72.34,187.05,72.34,187.05h70.73s-14.47-124.36-62.69-199.91-44.59-142.83-44.59-142.83h-75.97Z"/><line class="cls-67" x1="2093.86" y1="857.05" x2="2170.68" y2="858"/><line class="cls-66" x1="2093.73" y1="884.58" x2="2173.05" y2="885.41"/><line class="cls-58" x1="2098.07" y1="915.73" x2="2178.71" y2="911.99"/><line class="cls-59" x1="2105.77" y1="947.08" x2="2187.52" y2="939.35"/><line class="cls-68" x1="2119.39" y1="980.97" x2="2199.24" y2="966.15"/><line class="cls-57" x1="2138.39" y1="1012.35" x2="2214.99" y2="993.94"/><line class="cls-137" x1="2159.31" y1="1046.05" x2="2232.55" y2="1026.43"/><line class="cls-138" x1="2174.7" y1="1075.54" x2="2244.76" y2="1056.05"/><line class="cls-139" x1="2189.05" y1="1109.46" x2="2255.86" y2="1089.87"/><line class="cls-140" x1="2199.54" y1="1142.99" x2="2265.33" y2="1126.1"/><line class="cls-146" x1="2206.01" y1="1177.5" x2="2272.65" y2="1161.58"/><path class="cls-8" d="M2094.42,851.11s-9.28,84.12,40.19,155.69c75.55,109.31,72.34,187.05,72.34,187.05h70.73s-14.47-124.36-62.69-199.91-44.59-142.83-44.59-142.83h-75.97Z"/></g></g><rect class="cls-147" x="2050.82" y="854.31" width="119.57" height="110.39"/></g><g><rect class="cls-164" x="2077.86" y="728.11" width="119.57" height="110.39"/><g class="cls-168"><g><rect class="cls-11" x="1958.29" y="724.91" width="239.15" height="342.74"/><path class="cls-165" d="M2001.89,724.91s-9.28,84.12,40.19,155.69c75.55,109.31,72.34,187.05,72.34,187.05h70.73s-14.47-124.36-62.69-199.91-44.59-142.83-44.59-142.83h-75.97Z"/><line class="cls-143" x1="2001.33" y1="730.85" x2="2078.15" y2="731.8"/><line class="cls-144" x1="2001.2" y1="758.38" x2="2080.52" y2="759.21"/><line class="cls-141" x1="2005.54" y1="789.53" x2="2086.18" y2="785.79"/><line class="cls-142" x1="2013.24" y1="820.88" x2="2094.99" y2="813.15"/><line class="cls-145" x1="2026.86" y1="854.77" x2="2106.71" y2="839.95"/><line class="cls-85" x1="2045.86" y1="886.15" x2="2122.45" y2="867.74"/><line class="cls-83" x1="2066.78" y1="919.86" x2="2140.02" y2="900.23"/><line class="cls-84" x1="2082.17" y1="949.34" x2="2152.23" y2="929.85"/><line class="cls-74" x1="2096.52" y1="983.26" x2="2163.33" y2="963.67"/><line class="cls-88" x1="2107.01" y1="1016.79" x2="2172.8" y2="999.9"/><line class="cls-86" x1="2113.48" y1="1051.3" x2="2180.12" y2="1035.38"/><path class="cls-8" d="M2001.89,724.91s-9.28,84.12,40.19,155.69c75.55,109.31,72.34,187.05,72.34,187.05h70.73s-14.47-124.36-62.69-199.91-44.59-142.83-44.59-142.83h-75.97Z"/></g></g><rect class="cls-147" x="2077.86" y="728.11" width="119.57" height="110.39"/></g><g><rect class="cls-164" x="2234.05" y="693.49" width="119.57" height="110.39"/><g class="cls-170"><g><rect class="cls-11" x="2114.48" y="572.32" width="239.15" height="342.74"/><path class="cls-165" d="M2158.08,572.32s-9.28,84.12,40.19,155.69c75.55,109.31,72.34,187.05,72.34,187.05h70.73s-14.47-124.36-62.69-199.91-44.59-142.83-44.59-142.83h-75.97Z"/><line class="cls-87" x1="2157.52" y1="578.26" x2="2234.34" y2="579.21"/><line class="cls-91" x1="2157.39" y1="605.79" x2="2236.71" y2="606.62"/><line class="cls-92" x1="2161.73" y1="636.94" x2="2242.37" y2="633.2"/><line class="cls-89" x1="2169.43" y1="668.28" x2="2251.18" y2="660.55"/><line class="cls-82" x1="2183.04" y1="702.18" x2="2262.9" y2="687.35"/><line class="cls-80" x1="2202.05" y1="733.56" x2="2278.64" y2="715.15"/><line class="cls-76" x1="2222.97" y1="767.26" x2="2296.21" y2="747.63"/><line class="cls-79" x1="2238.36" y1="796.74" x2="2308.42" y2="777.26"/><line class="cls-81" x1="2252.71" y1="830.66" x2="2319.52" y2="811.07"/><line class="cls-75" x1="2263.2" y1="864.19" x2="2328.98" y2="847.3"/><line class="cls-73" x1="2269.66" y1="898.7" x2="2336.31" y2="882.79"/><path class="cls-8" d="M2158.08,572.32s-9.28,84.12,40.19,155.69c75.55,109.31,72.34,187.05,72.34,187.05h70.73s-14.47-124.36-62.69-199.91-44.59-142.83-44.59-142.83h-75.97Z"/></g></g><rect class="cls-147" x="2234.05" y="693.49" width="119.57" height="110.39"/></g><g><rect class="cls-164" x="2148.73" y="925.73" width="119.57" height="110.39"/><g class="cls-169"><g><rect class="cls-11" x="2148.73" y="805.56" width="239.15" height="342.74"/><path class="cls-165" d="M2192.33,805.56s-9.28,84.12,40.19,155.69c75.55,109.31,72.34,187.05,72.34,187.05h70.73s-14.47-124.36-62.69-199.91-44.59-142.83-44.59-142.83h-75.97Z"/><line class="cls-78" x1="2191.77" y1="811.5" x2="2268.59" y2="812.45"/><line class="cls-77" x1="2191.64" y1="839.03" x2="2270.96" y2="839.85"/><line class="cls-90" x1="2195.98" y1="870.17" x2="2276.62" y2="866.44"/><line class="cls-93" x1="2203.67" y1="901.52" x2="2285.43" y2="893.79"/><line class="cls-94" x1="2217.29" y1="935.42" x2="2297.15" y2="920.59"/><line class="cls-98" x1="2236.3" y1="966.8" x2="2312.89" y2="948.38"/><line class="cls-99" x1="2257.22" y1="1000.5" x2="2330.45" y2="980.87"/><line class="cls-100" x1="2272.61" y1="1029.98" x2="2342.66" y2="1010.5"/><line class="cls-101" x1="2286.95" y1="1063.9" x2="2353.77" y2="1044.31"/><line class="cls-102" x1="2297.44" y1="1097.43" x2="2363.23" y2="1080.54"/><line class="cls-95" x1="2303.91" y1="1131.94" x2="2370.55" y2="1116.02"/><path class="cls-8" d="M2192.33,805.56s-9.28,84.12,40.19,155.69c75.55,109.31,72.34,187.05,72.34,187.05h70.73s-14.47-124.36-62.69-199.91-44.59-142.83-44.59-142.83h-75.97Z"/></g></g><rect class="cls-147" x="2148.73" y="925.73" width="119.57" height="110.39"/></g><g><rect class="cls-164" x="2157.87" y="799.11" width="119.57" height="110.39"/><g class="cls-173"><g><rect class="cls-164" x="2157.87" y="566.76" width="239.15" height="342.74"/><rect class="cls-147" x="2157.87" y="566.76" width="239.15" height="342.74"/></g></g><rect class="cls-147" x="2157.87" y="799.11" width="119.57" height="110.39"/></g><g><rect class="cls-164" x="2277.45" y="846.24" width="119.57" height="110.39"/><g class="cls-171"><g><rect class="cls-11" x="2157.87" y="613.9" width="239.15" height="342.74"/><path class="cls-165" d="M2201.48,613.9s-9.28,84.12,40.19,155.69c75.55,109.31,72.34,187.05,72.34,187.05h70.73s-14.47-124.36-62.69-199.91-44.59-142.83-44.59-142.83h-75.97Z"/><line class="cls-96" x1="2200.92" y1="619.84" x2="2277.74" y2="620.79"/><line class="cls-97" x1="2200.79" y1="647.37" x2="2280.11" y2="648.2"/><line class="cls-133" x1="2205.13" y1="678.52" x2="2285.77" y2="674.78"/><line class="cls-134" x1="2212.82" y1="709.86" x2="2294.58" y2="702.13"/><line class="cls-131" x1="2226.44" y1="743.76" x2="2306.3" y2="728.94"/><line class="cls-132" x1="2245.45" y1="775.14" x2="2322.04" y2="756.73"/><line class="cls-135" x1="2266.37" y1="808.84" x2="2339.6" y2="789.21"/><line class="cls-136" x1="2281.76" y1="838.32" x2="2351.81" y2="818.84"/><line class="cls-118" x1="2296.1" y1="872.24" x2="2362.91" y2="852.65"/><line class="cls-117" x1="2306.59" y1="905.78" x2="2372.38" y2="888.89"/><line class="cls-119" x1="2313.06" y1="940.28" x2="2379.7" y2="924.37"/><path class="cls-8" d="M2201.48,613.9s-9.28,84.12,40.19,155.69c75.55,109.31,72.34,187.05,72.34,187.05h70.73s-14.47-124.36-62.69-199.91-44.59-142.83-44.59-142.83h-75.97Z"/></g></g><rect class="cls-147" x="2277.45" y="846.24" width="119.57" height="110.39"/></g><g><rect class="cls-164" x="129.08" y="877.57" width="119.57" height="110.39"/><g class="cls-172"><g><rect class="cls-11" x="9.51" y="645.23" width="239.15" height="342.74"/><path class="cls-165" d="M53.11,645.23s-9.28,84.12,40.19,155.69c75.55,109.31,72.34,187.05,72.34,187.05h70.73s-14.47-124.36-62.69-199.91-44.59-142.83-44.59-142.83H53.11Z"/><line class="cls-120" x1="52.55" y1="651.17" x2="129.37" y2="652.12"/><line class="cls-123" x1="52.42" y1="678.7" x2="131.74" y2="679.53"/><line class="cls-128" x1="56.77" y1="709.85" x2="137.41" y2="706.11"/><line class="cls-122" x1="64.46" y1="741.19" x2="146.21" y2="733.46"/><line class="cls-121" x1="78.08" y1="775.09" x2="157.93" y2="760.26"/><line class="cls-125" x1="97.09" y1="806.47" x2="173.68" y2="788.06"/><line class="cls-124" x1="118.01" y1="840.17" x2="191.24" y2="820.54"/><line class="cls-127" x1="133.39" y1="869.65" x2="203.45" y2="850.17"/><line class="cls-126" x1="147.74" y1="903.57" x2="214.55" y2="883.98"/><line class="cls-129" x1="158.23" y1="937.1" x2="224.02" y2="920.22"/><line class="cls-130" x1="164.7" y1="971.61" x2="231.34" y2="955.7"/><path class="cls-8" d="M53.11,645.23s-9.28,84.12,40.19,155.69c75.55,109.31,72.34,187.05,72.34,187.05h70.73s-14.47-124.36-62.69-199.91-44.59-142.83-44.59-142.83H53.11Z"/></g></g><rect class="cls-147" x="129.08" y="877.57" width="119.57" height="110.39"/></g><g><rect class="cls-164" x="535.62" y="704.52" width="119.57" height="110.39"/><g class="cls-174"><g><rect class="cls-11" x="416.05" y="472.18" width="239.15" height="342.74"/><path class="cls-165" d="M459.65,472.18s-9.28,84.12,40.19,155.69c75.55,109.31,72.34,187.05,72.34,187.05h70.73s-14.47-124.36-62.69-199.91-44.59-142.83-44.59-142.83h-75.97Z"/><line class="cls-40" x1="459.09" y1="478.12" x2="535.91" y2="479.07"/><line class="cls-41" x1="458.96" y1="505.65" x2="538.28" y2="506.47"/><line class="cls-43" x1="463.31" y1="536.79" x2="543.95" y2="533.06"/><line class="cls-44" x1="471" y1="568.14" x2="552.75" y2="560.41"/><line class="cls-46" x1="484.62" y1="602.04" x2="564.47" y2="587.21"/><line class="cls-38" x1="503.63" y1="633.42" x2="580.22" y2="615"/><line class="cls-42" x1="524.55" y1="667.12" x2="597.78" y2="647.49"/><line class="cls-39" x1="539.93" y1="696.6" x2="609.99" y2="677.12"/><line class="cls-47" x1="554.28" y1="730.52" x2="621.09" y2="710.93"/><line class="cls-45" x1="564.77" y1="764.05" x2="630.56" y2="747.16"/><line class="cls-27" x1="571.24" y1="798.56" x2="637.88" y2="782.64"/><path class="cls-8" d="M459.65,472.18s-9.28,84.12,40.19,155.69c75.55,109.31,72.34,187.05,72.34,187.05h70.73s-14.47-124.36-62.69-199.91-44.59-142.83-44.59-142.83h-75.97Z"/></g></g><rect class="cls-147" x="535.62" y="704.52" width="119.57" height="110.39"/></g><g><rect class="cls-164" x="535.62" y="877.57" width="119.57" height="110.39"/><g class="cls-176"><g><rect class="cls-11" x="416.05" y="645.23" width="239.15" height="342.74"/><path class="cls-165" d="M459.65,645.23s-9.28,84.12,40.19,155.69c75.55,109.31,72.34,187.05,72.34,187.05h70.73s-14.47-124.36-62.69-199.91-44.59-142.83-44.59-142.83h-75.97Z"/><line class="cls-36" x1="459.09" y1="651.17" x2="535.91" y2="652.12"/><line class="cls-35" x1="458.96" y1="678.7" x2="538.28" y2="679.53"/><line class="cls-30" x1="463.31" y1="709.85" x2="543.95" y2="706.11"/><line class="cls-33" x1="471" y1="741.19" x2="552.75" y2="733.46"/><line class="cls-32" x1="484.62" y1="775.09" x2="564.47" y2="760.26"/><line class="cls-31" x1="503.63" y1="806.47" x2="580.22" y2="788.06"/><line class="cls-26" x1="524.55" y1="840.17" x2="597.78" y2="820.54"/><line class="cls-34" x1="539.93" y1="869.65" x2="609.99" y2="850.17"/><line class="cls-37" x1="554.28" y1="903.57" x2="621.09" y2="883.98"/><line class="cls-54" x1="564.77" y1="937.1" x2="630.56" y2="920.22"/><line class="cls-50" x1="571.24" y1="971.61" x2="637.88" y2="955.7"/><path class="cls-8" d="M459.65,645.23s-9.28,84.12,40.19,155.69c75.55,109.31,72.34,187.05,72.34,187.05h70.73s-14.47-124.36-62.69-199.91-44.59-142.83-44.59-142.83h-75.97Z"/></g></g><rect class="cls-147" x="535.62" y="877.57" width="119.57" height="110.39"/></g><g><rect class="cls-164" x="129.08" y="704.52" width="119.57" height="110.39"/><g class="cls-177"><g><rect class="cls-11" x="9.51" y="472.18" width="239.15" height="342.74"/><path class="cls-165" d="M53.11,472.18s-9.28,84.12,40.19,155.69c75.55,109.31,72.34,187.05,72.34,187.05h70.73s-14.47-124.36-62.69-199.91-44.59-142.83-44.59-142.83H53.11Z"/><line class="cls-55" x1="52.55" y1="478.12" x2="129.37" y2="479.07"/><line class="cls-53" x1="52.42" y1="505.65" x2="131.74" y2="506.47"/><line class="cls-52" x1="56.77" y1="536.79" x2="137.41" y2="533.06"/><line class="cls-51" x1="64.46" y1="568.14" x2="146.21" y2="560.41"/><line class="cls-49" x1="78.08" y1="602.04" x2="157.93" y2="587.21"/><line class="cls-28" x1="97.09" y1="633.42" x2="173.68" y2="615"/><line class="cls-29" x1="118.01" y1="667.12" x2="191.24" y2="647.49"/><line class="cls-48" x1="133.39" y1="696.6" x2="203.45" y2="677.12"/><line class="cls-19" x1="147.74" y1="730.52" x2="214.55" y2="710.93"/><line class="cls-18" x1="158.23" y1="764.05" x2="224.02" y2="747.16"/><line class="cls-17" x1="164.7" y1="798.56" x2="231.34" y2="782.64"/><path class="cls-8" d="M53.11,472.18s-9.28,84.12,40.19,155.69c75.55,109.31,72.34,187.05,72.34,187.05h70.73s-14.47-124.36-62.69-199.91-44.59-142.83-44.59-142.83H53.11Z"/></g></g><rect class="cls-147" x="129.08" y="704.52" width="119.57" height="110.39"/></g><g><rect class="cls-164" x="1345.39" y="748.69" width="239.15" height="220.79"/><g class="cls-175"><g><rect class="cls-11" x="1106.25" y="283.99" width="478.29" height="685.48"/><path class="cls-165" d="M1193.45,283.99s-18.56,168.24,80.38,311.38c151.11,218.62,144.68,374.1,144.68,374.1h141.46s-28.94-248.71-125.39-399.82-89.19-285.66-89.19-285.66h-151.94Z"/><line class="cls-13" x1="1192.33" y1="295.88" x2="1345.97" y2="297.77"/><line class="cls-16" x1="1192.07" y1="350.94" x2="1350.71" y2="352.59"/><line class="cls-21" x1="1200.76" y1="413.23" x2="1362.04" y2="405.76"/><line class="cls-20" x1="1216.15" y1="475.92" x2="1379.65" y2="460.47"/><line class="cls-15" x1="1243.38" y1="543.72" x2="1403.09" y2="514.07"/><line class="cls-14" x1="1281.4" y1="606.47" x2="1434.58" y2="569.65"/><line class="cls-12" x1="1323.24" y1="673.88" x2="1469.7" y2="634.63"/><line class="cls-23" x1="1354.01" y1="732.85" x2="1494.12" y2="693.88"/><line class="cls-24" x1="1382.7" y1="800.69" x2="1516.33" y2="761.51"/><line class="cls-22" x1="1403.69" y1="867.75" x2="1535.26" y2="833.97"/><line class="cls-25" x1="1416.62" y1="936.77" x2="1549.9" y2="904.93"/><path class="cls-8" d="M1193.45,283.99s-18.56,168.24,80.38,311.38c151.11,218.62,144.68,374.1,144.68,374.1h141.46s-28.94-248.71-125.39-399.82-89.19-285.66-89.19-285.66h-151.94Z"/></g></g><rect class="cls-147" x="1345.39" y="748.69" width="239.15" height="220.79"/></g><line class="cls-7" x1="2157.87" y1="799.11" x2="2277.45" y2="909.5"/><line class="cls-7" x1="2157.87" y1="909.5" x2="2277.45" y2="799.11"/></g><g id="Layer_3"><text class="cls-2" transform="translate(170.64 135.86)"><tspan x="0" y="0">STED</tspan><tspan x="-3.56" y="84">S</tspan><tspan class="cls-1" x="19.78" y="84">T</tspan><tspan x="40.53" y="84">OM</tspan><tspan x="-136.19" y="168">Other super-resolustion</tspan><tspan x="-37.97" y="210">techniques</tspan></text><text class="cls-2" transform="translate(1012.63 138.72)"><tspan x="0" y="0">Thresholding</tspan></text><text class="cls-2" transform="translate(679.32 1417.9)"><tspan x="0" y="0">Further analysis in Excel</tspan></text><text class="cls-2" transform="translate(937.21 783.72)"><tspan x="0" y="0">360°</tspan><tspan class="cls-178" x="72.39" y="0"> </tspan><tspan x="80.19" y="0">Autocorrelation</tspan><tspan x="94.58" y="42">analysis</tspan></text><g><line class="cls-5" x1="463.44" y1="118.37" x2="577.44" y2="118.37"/><polygon class="cls-162" points="574.37 128.84 592.51 118.37 574.37 107.9 574.37 128.84"/></g><g><line class="cls-5" x1="1013.74" y1="207.31" x2="1229.21" y2="207.31"/><polygon class="cls-162" points="1226.14 217.78 1244.28 207.31 1226.14 196.84 1226.14 217.78"/></g><g><line class="cls-5" x1="655.2" y1="1483.96" x2="1069.64" y2="1483.96"/><polygon class="cls-162" points="1066.57 1494.43 1084.71 1483.96 1066.57 1473.49 1066.57 1494.43"/></g><text class="cls-2" transform="translate(1747.25 147.67)"><tspan x="0" y="0">Split into</tspan><tspan x="24.33" y="42" xml:space="preserve"> grids</tspan></text><text class="cls-2" transform="translate(2208.27 495.02)"><tspan x="0" y="0">Seperation</tspan><tspan x="50.59" y="42">and </tspan><tspan x="14.59" y="84">Cleanup </tspan></text><text class="cls-3" transform="translate(1728.91 262.05)"><tspan x="0" y="0">Many di</tspan><tspan class="cls-1" x="94.54" y="0">f</tspan><tspan x="101.55" y="0">ferent</tspan><tspan x="-23.52" y="32.4">methods available</tspan></text><g><line class="cls-5" x1="1709.93" y1="216.26" x2="1925.39" y2="216.26"/><polygon class="cls-162" points="1922.33 226.73 1940.46 216.26 1922.33 205.79 1922.33 226.73"/></g><g><line class="cls-164" x1="1940.46" y1="854.31" x2="1709.93" y2="854.31"/><g><line class="cls-5" x1="1940.46" y1="854.3" x2="1725" y2="854.3"/><polygon class="cls-162" points="1728.06 843.83 1709.93 854.3 1728.06 864.78 1728.06 843.83"/></g></g><g><line class="cls-164" x1="1210.28" y1="854.31" x2="979.74" y2="854.31"/><g><line class="cls-5" x1="1210.28" y1="854.3" x2="994.81" y2="854.3"/><polygon class="cls-162" points="997.88 843.83 979.74 854.3 997.88 864.78 997.88 843.83"/></g></g><g class="cls-179"><line class="cls-164" x1="1940.46" y1="799.11" x2="1709.93" y2="799.11"/><g><line class="cls-5" x1="1940.46" y1="799.11" x2="1934.46" y2="799.11"/><line class="cls-10" x1="1922.49" y1="799.11" x2="1736.98" y2="799.11"/><line class="cls-5" x1="1731" y1="799.11" x2="1725" y2="799.11"/><polygon class="cls-162" points="1728.06 788.64 1709.93 799.11 1728.06 809.58 1728.06 788.64"/></g></g><g class="cls-179"><line class="cls-164" x1="1940.46" y1="743.91" x2="1709.93" y2="743.91"/><g><line class="cls-5" x1="1940.46" y1="743.91" x2="1934.46" y2="743.91"/><line class="cls-10" x1="1922.49" y1="743.91" x2="1736.98" y2="743.91"/><line class="cls-5" x1="1731" y1="743.91" x2="1725" y2="743.91"/><polygon class="cls-162" points="1728.06 733.44 1709.93 743.91 1728.06 754.38 1728.06 733.44"/></g></g><g class="cls-179"><line class="cls-164" x1="1940.46" y1="909.5" x2="1709.93" y2="909.5"/><g><line class="cls-5" x1="1940.46" y1="909.5" x2="1934.46" y2="909.5"/><line class="cls-10" x1="1922.49" y1="909.5" x2="1736.98" y2="909.5"/><line class="cls-5" x1="1731" y1="909.5" x2="1725" y2="909.5"/><polygon class="cls-162" points="1728.06 899.03 1709.93 909.5 1728.06 919.97 1728.06 899.03"/></g></g><g class="cls-179"><line class="cls-164" x1="1940.46" y1="964.7" x2="1709.93" y2="964.7"/><g><line class="cls-5" x1="1940.46" y1="964.7" x2="1934.46" y2="964.7"/><line class="cls-10" x1="1922.49" y1="964.7" x2="1736.98" y2="964.7"/><line class="cls-5" x1="1731" y1="964.7" x2="1725" y2="964.7"/><polygon class="cls-162" points="1728.06 954.23 1709.93 964.7 1728.06 975.17 1728.06 954.23"/></g></g><g><line class="cls-164" x1="448.54" y1="1059.33" x2="448.54" y2="1289.86"/><g><line class="cls-5" x1="448.54" y1="1059.33" x2="448.54" y2="1274.79"/><polygon class="cls-162" points="438.07 1271.73 448.54 1289.86 459.01 1271.73 438.07 1271.73"/></g></g><g class="cls-179"><line class="cls-164" x1="402.79" y1="1059.33" x2="402.79" y2="1289.86"/><g><line class="cls-5" x1="402.79" y1="1059.33" x2="402.79" y2="1065.33"/><line class="cls-10" x1="402.79" y1="1077.29" x2="402.79" y2="1262.81"/><line class="cls-5" x1="402.79" y1="1268.79" x2="402.79" y2="1274.79"/><polygon class="cls-162" points="392.32 1271.73 402.79 1289.86 413.26 1271.73 392.32 1271.73"/></g></g><g class="cls-179"><line class="cls-164" x1="357.04" y1="1059.33" x2="357.04" y2="1289.86"/><g><line class="cls-5" x1="357.04" y1="1059.33" x2="357.04" y2="1065.33"/><line class="cls-10" x1="357.04" y1="1077.29" x2="357.04" y2="1262.81"/><line class="cls-5" x1="357.04" y1="1268.79" x2="357.04" y2="1274.79"/><polygon class="cls-162" points="346.57 1271.73 357.04 1289.86 367.51 1271.73 346.57 1271.73"/></g></g><g class="cls-179"><line class="cls-164" x1="494.29" y1="1059.33" x2="494.29" y2="1289.86"/><g><line class="cls-5" x1="494.29" y1="1059.33" x2="494.29" y2="1065.33"/><line class="cls-10" x1="494.29" y1="1077.29" x2="494.29" y2="1262.81"/><line class="cls-5" x1="494.29" y1="1268.79" x2="494.29" y2="1274.79"/><polygon class="cls-162" points="483.82 1271.73 494.29 1289.86 504.76 1271.73 483.82 1271.73"/></g></g><g class="cls-179"><line class="cls-164" x1="540.04" y1="1059.33" x2="540.04" y2="1289.86"/><g><line class="cls-5" x1="540.04" y1="1059.33" x2="540.04" y2="1065.33"/><line class="cls-10" x1="540.04" y1="1077.29" x2="540.04" y2="1262.81"/><line class="cls-5" x1="540.04" y1="1268.79" x2="540.04" y2="1274.79"/><polygon class="cls-162" points="529.57 1271.73 540.04 1289.86 550.51 1271.73 529.57 1271.73"/></g></g><g><line class="cls-5" x1="2185.63" y1="427.96" x2="2185.63" y2="637.65"/><polygon class="cls-162" points="2175.16 634.59 2185.63 652.72 2196.1 634.59 2175.16 634.59"/></g><g><line class="cls-5" x1="463.44" y1="204.86" x2="577.44" y2="204.86"/><polygon class="cls-162" points="574.37 215.33 592.51 204.86 574.37 194.39 574.37 215.33"/></g><g><line class="cls-5" x1="463.44" y1="291.35" x2="577.44" y2="291.35"/><polygon class="cls-162" points="574.37 301.82 592.51 291.35 574.37 280.88 574.37 301.82"/></g><g id="_qfVIv.tif"><path class="cls-166" d="M523.67,1587.69h-150.33c-5.45-1.98-7.13-6.05-7.05-11.59,.19-13.26,.06-26.53,.06-39.79,0-.85,0-1.69,0-2.65-1.69,0-3.01,.01-4.33,0-8.39-.08-13.76-5.3-13.78-13.64-.06-21.37-.05-42.74,0-64.11,.02-8.37,5.37-13.63,13.72-13.69,1.43-.01,2.87,0,4.39,0,0-1.25,0-2.13,0-3.01,0-22.47,0-44.95,0-67.42,0-7.13,3.43-10.52,10.6-10.53,34.62,0,69.25,.02,103.87-.04,2.58,0,4.44,.8,6.13,2.75,13.83,15.89,27.72,31.74,41.63,47.56,1.46,1.66,2.09,3.46,2.08,5.62-.03,7.52-.01,15.03-.01,22.55,0,.78,0,1.56,0,2.53,1.89,0,3.5-.04,5.1,0,4.02,.13,7.68,1.37,9.99,4.75,1.44,2.11,2.11,4.75,3.12,7.15v67.66c-.09,.2-.21,.39-.26,.6-1.84,7.85-6.12,11.25-14.19,11.27-1.21,0-2.43,0-3.76,0v2.98c0,13.16-.12,26.33,.06,39.49,.08,5.53-1.61,9.59-7.05,11.56Zm-45.56-217.41h-102.76v71.78h146.25v-22.02h-2.6c-11.72,0-23.43,0-35.15,0-4.14,0-5.73-1.62-5.74-5.78-.01-7.59,0-15.18,0-22.77,0-7,0-13.99,0-21.2Zm43.49,205.95v-42.42h-146.18v42.42h146.18Zm-48.32-124.1c.07,.58,.06,.8,.12,1,6.79,21.23,13.61,42.45,20.36,63.69,.43,1.36,1.13,1.63,2.38,1.61,4.49-.05,8.99-.1,13.48,.02,1.69,.05,2.43-.5,2.96-2.1,6.87-20.58,13.82-41.14,20.73-61.71,.25-.73,.41-1.49,.68-2.51-5.14,0-9.98-.04-14.83,.06-.46,0-1.16,.81-1.32,1.36-4.02,13.77-8,27.54-11.94,41.33-.81,2.85-1.42,5.76-2.12,8.64-.6-.98-.78-1.92-1.03-2.83-4.26-15.69-8.52-31.37-12.85-47.04-.16-.6-.95-1.45-1.47-1.46-4.99-.11-9.99-.07-15.18-.07Zm-47.39,51.66c-.77,3.1-1.73,6.78-2.53,10.5-.1,.48,.57,1.48,1.1,1.68,10.36,4.03,20.91,4.96,31.44,.9,7.66-2.95,12.07-8.66,12.54-17.09,.46-8.26-3.6-13.91-10.56-17.64-3.36-1.8-7.01-3.04-10.47-4.66-2.12-.99-4.32-1.98-6.15-3.4-3.27-2.54-2.94-7.01,.67-9.02,1.67-.93,3.72-1.44,5.64-1.58,5.16-.38,10.09,.79,14.98,2.99,1.12-4.04,2.2-7.98,3.41-12.37-3.37-.85-6.51-1.93-9.74-2.41-8.56-1.28-16.89-.81-24.39,4.26-9.77,6.62-10.78,20.62-1.62,28.03,3.47,2.8,7.86,4.49,11.88,6.59,2.66,1.39,5.51,2.45,8.09,3.98,2.23,1.32,3.27,3.5,2.93,6.22-.35,2.83-2.06,4.66-4.61,5.35-2.3,.63-4.84,1.16-7.15,.83-5.12-.73-10.15-2.03-15.46-3.15Zm-12.42-37.95c.82-3.18,1.58-6.09,2.32-9.01,.79-3.1,.79-3.13-2.39-4.01-6.39-1.76-12.9-2.3-19.46-1.31-12.21,1.85-21.75,7.66-26.84,19.3-3.83,8.75-4.11,17.85-1.35,26.98,2.97,9.8,9.51,16.22,19.14,19.5,6.98,2.37,14.17,2.53,21.38,1.57,3.16-.42,6.26-1.28,9.53-1.97l-2.34-11.99c-5.33,1.74-10.54,2.48-15.88,1.83-5.19-.64-9.79-2.48-13.17-6.76-4.55-5.74-5.19-12.39-4.3-19.26,1.26-9.63,7.97-15.88,17.52-17,5.4-.63,10.54,.26,15.84,2.12Z"/></g><g id="KQNec3.tif"><g><path class="cls-158" d="M1443.87,1601.76h-190.64c-.19-.28-.52-.21-.79-.29-3.84-1.09-6.53-3.46-8.03-7.16-.63-1.56-.78-3.21-.78-4.87,0-10.23,0-20.46-.02-30.7,0-4.72-.03-9.44-.05-14.17,21.33,0,42.65,0,63.98,0,1,0,1.98-.09,2.96-.28,3.26-.63,5.79-2.4,7.62-5.12,1.35-2,1.96-4.28,1.96-6.69,0-18.88,0-37.77,0-56.65,0-2.77-.01-5.55-.02-8.32,0-.62,.02-1.24,.02-1.86,0-16.09,0-32.19,0-48.28,0-1.03-.07-2.05-.2-3.08-.59-4.54-4.66-8.57-8.77-9.39-.38-.07-.73-.12-.95-.49,1.48,0,2.97-.06,4.45-.01,4.19,.12,7.52,1.87,9.91,5.35,.25,.37,.53,.73,.8,1.09,.04,.24,.04,.51,.14,.72,.86,1.97,1.1,4.05,1.1,6.17,0,18.2,0,36.4,0,54.61,0,.37-.01,.75,0,1.12,.04,.91,.1,1.01,1,1.02,1.74,.02,3.47,0,5.21,0,6.38,0,12.76,0,19.14,0h0c0,20.58,0,41.17,0,61.75,0,2.01-.13,1.88,1.89,1.88,33.26,0,66.51,0,99.77,0v54.69c-.19,.05-.22,.2-.26,.36-1.25,4.39-4.13,7.11-8.49,8.33-.31,.09-.63,.17-.94,.26Z"/><path class="cls-159" d="M1453.56,1410.86v63.63c-33.89,0-67.77,0-101.66,0h0c0-20.62,0-41.24,0-61.87,0-.58-.01-1.16-.02-1.74l.05-.05c.66,0,1.32,.02,1.99,.02,33.21,0,66.43,0,99.64,0Z"/><path class="cls-157" d="M1351.91,1474.49c33.89,0,67.77,0,101.66,0v63.63c-33.26,0-66.51,0-99.77,0-2.02,0-1.89,.12-1.89-1.88,0-20.58,0-41.17,0-61.75Z"/><path class="cls-160" d="M1453.56,1410.86c-33.21,0-66.43,0-99.64,0-.66,0-1.32-.02-1.99-.02-.01-.46-.03-.91-.03-1.37,0-20.75,0-41.49,0-62.24,.41-.02,.82-.06,1.24-.06,29.45,0,58.9,0,88.35-.01,3.02,0,5.74,.77,8.05,2.73,1.98,1.68,3.38,3.73,3.82,6.35,.04,.23,.14,.46,.21,.68v53.94Z"/><path class="cls-157" d="M1188.61,1544.05c-4.24-.94-7.75-4.75-8.44-9.15-.17-1.1-.26-2.21-.26-3.34,.02-38.05,.02-76.11,.02-114.16,0-1.62,.12-3.23,.61-4.78,1.5-4.77,5.8-7.99,10.89-8.17,.54-.02,1.08-.01,1.61-.01,16.35,0,32.71,0,49.06,0,.5,0,.99-.02,1.49-.03,.54,0,1.08-.02,1.61-.02,21.24,0,42.48,0,63.72,0,.41,0,.83,.02,1.24,.03,.21,.37,.57,.41,.95,.49,4.11,.81,8.18,4.85,8.77,9.39,.13,1.03,.2,2.05,.2,3.08,0,16.09,0,32.19,0,48.28,0,.62-.01,1.24-.02,1.86-.12,.04-.26,.05-.35,.12-1.87,1.52-4.04,2.56-6.11,3.76-2.97,1.72-5.93,3.44-8.9,5.16-2.79,1.62-5.58,3.23-8.37,4.84-3.08,1.78-6.16,3.54-9.24,5.32-2.33,1.34-4.65,2.68-6.98,4.03-1.86,1.08-3.72,2.15-5.56,3.26-.75,.46-.76,.54-.33,1.28,.41,.7,.62,1.43,.54,2.24-.23-.34-.48-.67-.69-1.02-3.2-5.16-6.39-10.32-9.58-15.48-1.26-2.04-2.51-4.1-3.8-6.12-.33-.52-.42-.95-.01-1.45,.13-.16,.22-.35,.33-.53,7.19-11.72,14.38-23.43,21.55-35.15,.22-.35,.62-.67,.48-1.24h-.65c-4.64,0-9.28,0-13.92,0q-1.81,0-2.71,1.57c-.04,.07-.03,.17-.08,.23-.96,1.08-1.36,2.48-2.12,3.69-1.01,1.62-1.75,3.4-2.65,5.09-3.24,6.15-6.89,12.08-9.75,18.43-.04,.09-.19,.12-.29,.19-.6-1.3-1.15-2.6-1.78-3.85-4.12-8.17-8.26-16.32-12.37-24.49-.32-.63-.69-.89-1.42-.88-5.38,.03-10.77,.02-16.15,.02-.17,0-.33,0-.5,0-.53,0-.55,.28-.31,.63,1.44,2.11,2.71,4.32,4.03,6.5,5.99,9.92,11.87,19.91,17.81,29.86,.37,.61,.41,1.05-.01,1.66-1.58,2.28-3.15,4.57-4.62,6.92-1.62,2.58-3.29,5.13-4.95,7.68-1.4,2.15-2.73,4.35-4.1,6.52-3.15,5.01-6.4,9.96-9.61,14.94-.21,.33-.51,.63-.56,1.01,.24,.22,.46,.17,.65,.17,5.34,0,10.69-.01,16.03,.02,.68,0,1.03-.24,1.34-.82,2.15-3.98,4.33-7.95,6.51-11.92,2.47-4.5,4.93-9,7.4-13.5,.58-1.05,1.19-2.09,1.64-3.2,.08-.2,.06-.53,.46-.51,1.45,3.14,3.2,6.14,4.81,9.21,.1,.18,.2,.36,.27,.56,.72,2.04,2.09,3.76,2.9,5.75,.01,.04,.05,.06,.08,.1,1,1.28,1.65,2.75,2.34,4.21-1.13-.43-1.98,.22-2.87,.73-2.93,1.7-5.86,3.39-8.79,5.09-3,1.74-6,3.48-9.01,5.21-3.43,1.98-6.87,3.96-10.3,5.94-3.01,1.73-6.01,3.46-9.01,5.2-2.82,1.63-5.64,3.28-8.47,4.91-3.04,1.75-6.09,3.49-9.13,5.25-2.93,1.69-5.86,3.39-8.79,5.08-1.72,.99-3.43,1.98-5.15,2.97-.54,.31-.94,.68-.61,1.37Z"/><path class="cls-159" d="M1310.16,1404.42c-.41,0-.83-.03-1.24-.03-21.24,0-42.48,0-63.72,0-.54,0-1.08,.01-1.61,.02,.01-2.61,.04-5.22,.04-7.83,0-12.3,0-24.6,0-36.9,0-1.54,.12-3.05,.61-4.53,1.56-4.66,5.85-7.86,10.76-7.99,.5-.01,.99,0,1.49,0,31.27,0,62.53,0,93.8,0,.54,0,1.07,.04,1.61,.06,0,20.75,0,41.49,0,62.24,0,.46,.02,.91,.03,1.37l-.05,.05c-6.37,0-12.74-.02-19.11-.03-2.48,0-4.97,0-7.45-.01-.27-.36-.54-.72-.8-1.09-2.39-3.48-5.72-5.23-9.91-5.35-1.48-.04-2.97,0-4.45,.01Z"/><path class="cls-161" d="M1274.76,1497.53c.09-.81-.13-1.54-.54-2.24-.42-.73-.42-.82,.33-1.28,1.84-1.11,3.7-2.18,5.56-3.26,2.32-1.35,4.65-2.69,6.98-4.03,3.08-1.77,6.16-3.54,9.24-5.32,2.79-1.61,5.58-3.23,8.37-4.84,2.97-1.72,5.94-3.44,8.9-5.16,2.07-1.2,4.24-2.24,6.11-3.76,.09-.07,.23-.08,.35-.12,0,2.77,.02,5.55,.02,8.32,0,18.88,0,37.77,0,56.65,0,2.41-.62,4.69-1.96,6.69-1.83,2.73-4.36,4.49-7.62,5.12-.98,.19-1.96,.28-2.96,.28-21.33-.01-42.65,0-63.98,0-.5,0-.99-.03-1.49-.03-16.52,0-33.03,0-49.55,0-1.33,0-2.65-.03-3.92-.49-.32-.69,.07-1.06,.61-1.37,1.72-.98,3.44-1.97,5.15-2.97,2.93-1.69,5.86-3.39,8.79-5.08,3.04-1.75,6.09-3.49,9.13-5.25,2.83-1.63,5.64-3.28,8.47-4.91,3-1.74,6.01-3.47,9.01-5.2,3.43-1.98,6.87-3.96,10.3-5.94,3-1.73,6.01-3.47,9.01-5.21,2.93-1.7,5.86-3.39,8.79-5.09,.89-.51,1.74-1.16,2.87-.73,.21,.35,.44,.69,.64,1.05,1.47,2.73,2.94,5.46,4.37,8.21,.32,.62,.69,.89,1.43,.88,5.26-.04,10.51-.02,15.77-.03,.25,0,.59,.16,.76-.24-2.21-3.6-4.43-7.21-6.65-10.83-.78-1.27-1.53-2.55-2.3-3.82Z"/><path class="cls-157" d="M1332.77,1410.86c6.37,0,12.74,.02,19.11,.03,0,.58,.02,1.16,.02,1.74,0,20.62,0,41.24,0,61.87-6.38,0-12.76,0-19.14,0,0-21.21,0-42.42,0-63.62Z"/><path class="cls-161" d="M1332.77,1410.86c0,21.21,0,42.42,0,63.62-1.74,0-3.47,.02-5.21,0-.9-.01-.97-.1-1-1.02-.02-.37,0-.74,0-1.12,0-18.2,0-36.4,0-54.61,0-2.12-.24-4.2-1.1-6.17-.1-.22-.09-.48-.14-.72,2.48,0,4.97,0,7.45,.01Z"/></g></g></g><g id="Layer_5"><path class="cls-163" d="M2368.75,1365.57c-9.59-3.83-11.76-15-17.2-23.29-6.04-9.2-15.81-15.73-26.89-17.44-38.3-5.91-76.62,33.74-58.28,80.03,8.17,20.61,26.93,37.3,39,55.85,23.27,35.76,35.57,75.07,14.94,115.1-3.31,5.88-6.96,11.69-10.73,17.28-12.94,17.77-30.42,33.7-49.07,45.26l-2.6,1.58c-.1,.06-.2,.12-.3,.17h0l-5.67,3.44h154.43c-23.98-12.31-6.48-3.36-23.98-12.31-5.91-3.02-13.04-8.26-13.88-15.86-.35-3.18,.4-6.39,1.44-9.42,2.71-7.91,3.81-11.35,6.63-19.22,3.61-10.07,7.28-20.12,10.38-30.36,5.93-19.57,9.28-39.83,6.37-60.26-.84-5.93-2.16-11.79-3.86-17.54-4.97-16.78-12.81-29.98-22.25-44.56-2.37-3.66-4.66-7.36-6.68-11.22-3.78-7.21-5.01-12.47-2.39-20.18,3.26-9.6,9.47-11.01,20.7-15.64,9.38-3.86,10.57-3.7,24.67-9.57"/><path class="cls-167" d="M2306.4,1517.03c-.3-2.77-.73-5.52-1.28-8.23-2.95-14.46-9.55-27.7-17.56-39.72-5.47-8.21-12.5-15.11-18.52-22.93-6.3-8.17-12.48-16.52-17.53-25.61-5.23-9.41-6.98-19.66-6.49-30.03,.25-5.37,1.84-21.26,1.84-21.26-3.1,5.05-3.83,5.96-6.43,10.33-5.13,8.64-9.4,17.88-11.31,28.15-3.24,17.39,1.97,35.25,10.58,50.75,8.49,15.27,21.13,27.67,26.48,44.69,.47,1.51,.9,3.03,1.3,4.56,.06,.22,.11,.44,.17,.66,.08,.34,.17,.68,.24,1.01,.05,.2,.09,.39,.14,.59,.09,.38,.17,.76,.25,1.15,.08,.36,.15,.72,.22,1.07,1.12,5.55,1.71,11.23,1.71,16.96,.02,10.84-3.07,20.2-5.34,30.79-3.19,14.86-8.82,29.4-15.83,43.37-3.64,7.26-7.69,14.4-12.04,21.4-2.28,3.67-4.66,7.39-6.93,11.09-1.63,2.65-3.3,5.28-5.07,7.84,9.71-5.26,12.63-7.18,17.13-10.54,19.14-14.27,36.47-33.07,48.28-52.86,11.55-19.35,18.36-41.2,15.99-63.24Z"/><path class="cls-56" d="M288.33,955.42c-.09,3.59,1.59,3.55,3.62,1.51,1.05-1.05,1.49-2.73,2.16-4.14,3.51-7.52,6.9-15.11,10.6-22.54,.77-1.54,3.32-3.79,3.99-3.47,1.75,.83,3.51,2.68,4.21,4.52,2.22,5.84,3.79,11.93,5.97,17.79,.58,1.55,1.51,2.97,2.47,4.37,.8,1.17,2.52,1.19,3.35,.03,1.13-1.59,2.25-3.18,2.94-4.94,2.71-6.9,4.85-14.03,7.51-20.95,.64-1.67,1.67-3.19,2.71-4.7,.68-1,2.16-1.01,2.85-.01,1.05,1.52,2.1,3.04,2.68,4.72,2.19,6.39,3.72,13,5.97,19.37,.66,1.87,1.89,3.55,3.11,5.22,.76,1.05,2.31,1.1,3.14,.09,1.4-1.69,2.82-3.38,3.52-5.32,5.93-16.61,6.88-34.19,9.61-51.43,.91-5.77,2.84-11.49,4.29-17.22,.26-1.02,1.7-1,1.95,.02,1.42,5.72,3.27,11.44,4.18,17.2,2.72,17.24,3.79,34.78,9.49,51.47,.05,.16-.07,.4,.02,.51,1.27,1.68,2.56,3.35,3.84,5.01,.68,.88,2.02,.85,2.65-.07,1.1-1.6,2.23-3.2,2.87-4.97,2.35-6.56,4.12-13.34,6.47-19.9,.68-1.91,1.94-3.61,3.12-5.33,.48-.7,1.52-.71,2,0,1.17,1.73,2.4,3.43,3.13,5.33,2.66,6.92,4.8,14.05,7.51,20.95,.78,1.98,2.1,3.76,3.38,5.54,.61,.86,1.9,.85,2.49-.03,1.1-1.61,2.23-3.21,2.89-4.99,2.18-5.86,3.75-11.95,5.97-17.79,.7-1.84,2.46-3.69,4.21-4.52,.67-.32,3.21,1.93,3.99,3.47,4.04,7.96,7.72,16.1,11.71,24.08,.74,1.47,2.38,2.49,3.61,3.71"/><path class="cls-56" d="M847.19,970.6c-10.95-7.87-18-19.59-29.05-27.81-10.8-8.04-20.68-18.08-28.4-29.84-4.58-6.97-11.07-12.68-16.76-19.04-.03,0-.3-.08-.37,.01-8.24,9.97-16.41,20.01-24.74,29.9-2.54,3.02-5.5,5.7-8.38,8.42-4.68,4.43-9.09,9.26-14.26,13.02-6.16,4.49-11.61,9.3-15.82,15.78-2.08,3.21-5.81,5.34-8.77,7.99-.92,.82-1.76,1.74-2.63,2.62"/><path class="cls-56" d="M838.26,798.15c-4.03,4.12-6.89,3.96-11.04-.52-1.51-1.63-2.87-3.86-4.77-4.6-4.46-1.73-7.87-4.57-11-8-2.42-2.65-4.66-4.41-8.51-1.22-3.36,2.79-5.42,1.51-7.78-2.99-3.06-5.83-6.48-11.47-9.37-17.38-2.24-4.57-4.3-9.31-5.76-14.18-3.07-10.25-5.68-20.64-8.49-30.97v2.1c-1.75,5.08-4.02,10.04-5.15,15.26-2.51,11.57-4.78,23-12.56,32.67-3.05,3.79-4.45,8.94-6.43,13.54-1.67,3.87-4.77,4.18-7.27,1.96-3.76-3.34-6.07-1.46-8.5,1.2-3.13,3.43-6.57,6.21-10.99,8.01-2.11,.86-3.6,3.32-5.31,5.11-3.11,3.26-5.68,3.6-8.41,1.04"/><path class="cls-56" d="M448.54,797.8l-1.05,2.63c-.88-.53-2.27-.86-2.54-1.61-1.58-4.31-3-8.69-4.26-13.11-1.85-6.45-3.41-12.99-5.36-19.4-.48-1.57-2.02-2.83-3.07-4.23-1.05,1.4-2.6,2.65-3.07,4.23-2.62,8.88-4.99,17.83-7.43,26.76-.19,.7-.17,1.54-.57,2.07-.74,.98-1.71,1.78-2.59,2.66-.7-1.05-1.73-2.01-2.05-3.17-1.86-6.8-3.8-13.59-5.24-20.48-1.67-8-2.85-16.1-4.29-24.14-.16-.91-.49-1.92-1.07-2.59-.88-1.02-2.06-1.79-3.11-2.66-.7,1.05-1.78,2.02-2.04,3.17-1.86,8.2-3.62,16.43-5.3,24.68-1.49,7.34-2.66,14.74-4.35,22.03-.37,1.6-2.33,2.83-3.55,4.23l-.53-1.05c-2.19-4.1-2.8-8.49-3.28-13.12-1.76-16.84-3.98-33.64-6.23-50.43-.69-5.13-2.04-10.16-3.1-15.24h-2.1c-1.05,5.25-2.42,10.47-3.09,15.77-1.44,11.35-2.38,22.77-3.79,34.13-.98,7.91-2.33,15.78-3.69,23.63-.31,1.82-1.34,3.51-2.04,5.26l-.53,1.05c-.88-.88-2.21-1.6-2.54-2.65-1.25-3.96-2.32-8-3.21-12.06-2.52-11.54-4.86-23.12-7.44-34.65-.41-1.85-1.69-3.52-2.56-5.27-1.23,1.93-3.12,3.71-3.56,5.8-1.69,7.99-2.71,16.13-4.38,24.12-1.44,6.89-3.38,13.69-5.24,20.48-.32,1.16-1.35,2.12-2.05,3.17-.88-.88-1.85-1.68-2.59-2.66-.4-.53-.38-1.37-.57-2.07-2.45-8.93-4.81-17.89-7.43-26.76-.47-1.57-2.02-2.83-3.07-4.23-1.05,1.4-2.59,2.65-3.07,4.23-1.96,6.42-3.51,12.95-5.36,19.4-1.27,4.42-2.69,8.79-4.26,13.11-.27,.75-1.67,1.08-2.54,1.61l-1.05-2.63"/><line class="cls-4" x1="173.97" y1="704.52" x2="203.6" y2="814.91"/><line class="cls-4" x1="210.61" y1="877.54" x2="166.96" y2="987.93"/><line class="cls-4" x1="535.62" y1="731.37" x2="655.2" y2="792.24"/><line class="cls-4" x1="535.62" y1="951.9" x2="655.2" y2="913.64"/></g><g id="Layer_7"><rect class="cls-9" x="2.5" y="2.5" width="2440.79" height="1641.16" rx="40" ry="40"/></g></svg>